<svg width="80" height="80" viewBox="0 0 80 80" fill="none" xmlns="http://www.w3.org/2000/svg">
<g clip-path="url(#clip0_124_13)">
<path d="M52.9392 58.4607C54.9469 60.4683 57.4787 61.7408 60.2253 62.1533L47.6392 74.7393C43.525 78.8536 36.9748 78.8536 32.8606 74.7393L20.4617 62.3405C23.4821 62.0541 26.2803 60.7409 28.4606 58.5607L40.2606 46.7607C40.3313 46.69 40.4993 46.6 40.7499 46.6C41.0005 46.6 41.1685 46.69 41.2392 46.7607L52.9392 58.4607Z" stroke="white" stroke-width="3"/>
<path d="M28.4606 21.5393C26.2767 19.3555 23.4726 18.0415 20.4465 17.758L32.8606 5.26065C32.8612 5.26006 32.8617 5.25946 32.8623 5.25887C36.9767 1.14643 43.5256 1.14703 47.6392 5.26065L60.2386 17.86C57.5254 18.2861 55.0258 19.5528 53.0392 21.5393L41.2392 33.3393C40.925 33.6536 40.5748 33.6536 40.2606 33.3393L28.4606 21.5393Z" stroke="white" stroke-width="3"/>
<path d="M74.9393 32.6607L74.945 32.6664L74.9508 32.672C79.0413 36.6754 79.0583 43.3082 74.8506 47.4282L74.8449 47.4338L74.8393 47.4393L66.3791 55.8996C66.3622 55.8996 66.3468 55.8997 66.3331 55.8998C66.3207 55.8999 66.3097 55.9 66.3 55.9H62.2C60.514 55.9 58.791 55.1697 57.5607 53.9393L57.5561 53.9348L45.7607 42.2393C45.7599 42.2385 45.759 42.2377 45.7582 42.2369C43.072 39.5536 38.3243 39.5544 35.6393 42.2393L23.8393 54.0393C22.609 55.2697 20.886 56 19.2 56H14.1C14.0903 56 14.0793 55.9999 14.0669 55.9998C14.0532 55.9997 14.0378 55.9996 14.0209 55.9996L5.46066 47.4393C1.34645 43.3251 1.34645 36.7749 5.46066 32.6607L14.0227 24.0986C14.0479 24.0995 14.0736 24.1 14.1 24.1H19.2C20.886 24.1 22.609 24.8303 23.8393 26.0607L23.8438 26.0651L35.7393 37.8607C35.7401 37.8614 35.7408 37.8621 35.7416 37.8629C37.1175 39.2376 38.9958 40 40.8 40C42.6042 40 44.4826 39.2376 45.8585 37.8628C45.8592 37.8621 45.8599 37.8614 45.8607 37.8607L57.6561 26.1652L57.6607 26.1607C58.891 24.9303 60.614 24.2 62.3 24.2H66.4C66.4097 24.2 66.4207 24.2001 66.4331 24.2002C66.4468 24.2003 66.4622 24.2004 66.4791 24.2004L74.9393 32.6607Z" stroke="white" stroke-width="3"/>
</g>
<defs>
<clipPath id="clip0_124_13">
<rect width="80" height="80" fill="white"/>
</clipPath>
</defs>
</svg>
