<svg width="80" height="80" viewBox="0 0 80 80" fill="none" xmlns="http://www.w3.org/2000/svg">
<path d="M62.1999 60.8C59.0999 60.8 56.1999 59.6 53.9999 57.4L42.2999 45.7C41.4999 44.9 39.9999 44.9 39.1999 45.7L27.3999 57.5C25.1999 59.7 22.2999 60.9 19.1999 60.9H16.8999L31.7999 75.8C36.4999 80.5 43.9999 80.5 48.6999 75.8L63.6999 60.8H62.1999V60.8Z" fill="white"/>
<path d="M19.1999 19.2C22.2999 19.2 25.1999 20.4 27.3999 22.6L39.1999 34.4C40.0999 35.3 41.3999 35.3 42.2999 34.4L54.0999 22.6C56.2999 20.4 59.1999 19.2 62.2999 19.2H63.6999L48.6999 4.19999C43.9999 -0.500012 36.4999 -0.500012 31.7999 4.19999L16.8999 19.2H19.1999Z" fill="white"/>
<path d="M76 31.6L67 22.6C66.8 22.7 66.6 22.7 66.4 22.7H62.3C60.2 22.7 58.1 23.6 56.6 25.1L44.8 36.8C43.7 37.9 42.2 38.5 40.8 38.5C39.4 38.5 37.9 37.9 36.8 36.8L24.9 25C23.4 23.5 21.3 22.6 19.2 22.6H14.1C13.9 22.6 13.7 22.5 13.5 22.5L4.4 31.6C-0.3 36.3 -0.3 43.8 4.4 48.5L13.5 57.6C13.7 57.5 13.9 57.5 14.1 57.5H19.2C21.3 57.5 23.4 56.6 24.9 55.1L36.7 43.3C38.8 41.2 42.6 41.2 44.7 43.3L56.5 55C58 56.5 60.1 57.4 62.2 57.4H66.3C66.5 57.4 66.7 57.4 66.9 57.5L75.9 48.5C80.7 43.8 80.7 36.2 76 31.6Z" fill="white"/>
</svg>
