<svg width="36" height="36" viewBox="0 0 36 36" fill="none" xmlns="http://www.w3.org/2000/svg">
<path d="M29.25 9.37484H27.6525C27.9586 8.79697 28.1207 8.15376 28.125 7.49985C28.126 6.64889 27.8634 5.8185 27.3735 5.12275C26.8835 4.42699 26.1902 3.89999 25.3887 3.61414C24.5872 3.32829 23.7168 3.2976 22.8971 3.52629C22.0775 3.75498 21.3487 4.23183 20.811 4.89134C20.7705 4.94984 19.0845 7.18484 18 8.62784C16.914 7.18334 15.2265 4.93934 15.1785 4.87784C14.639 4.22154 13.9098 3.74806 13.0907 3.52224C12.2717 3.29642 11.4028 3.3293 10.6032 3.61637C9.80358 3.90344 9.11224 4.43068 8.62385 5.12587C8.13546 5.82107 7.8739 6.65024 7.875 7.49985C7.87934 8.15376 8.04142 8.79697 8.3475 9.37484H6.75C5.85526 9.37604 4.99751 9.732 4.36483 10.3647C3.73215 10.9974 3.37619 11.8551 3.375 12.7498V17.9998C3.375 18.2982 3.49353 18.5844 3.7045 18.7953C3.91548 19.0063 4.20163 19.1248 4.5 19.1248H4.875V26.9998C4.78691 27.7598 4.87181 28.5299 5.12335 29.2525C5.37489 29.975 5.78655 30.6313 6.32754 31.1723C6.86853 31.7133 7.52485 32.125 8.2474 32.3765C8.96994 32.628 9.74001 32.7129 10.5 32.6248H25.5C26.26 32.7129 27.0301 32.628 27.7526 32.3765C28.4752 32.125 29.1315 31.7133 29.6725 31.1723C30.2134 30.6313 30.6251 29.975 30.8766 29.2525C31.1282 28.5299 31.2131 27.7598 31.125 26.9998V19.1248H31.5C31.7984 19.1248 32.0845 19.0063 32.2955 18.7953C32.5065 18.5844 32.625 18.2982 32.625 17.9998V12.7498C32.6238 11.8551 32.2678 10.9974 31.6352 10.3647C31.0025 9.732 30.1447 9.37604 29.25 9.37484ZM30.375 12.7498V16.8748H19.125V11.6248H29.25C29.5482 11.6252 29.8342 11.7439 30.0451 11.9548C30.2559 12.1657 30.3746 12.4516 30.375 12.7498ZM22.5585 6.31034C22.7316 6.09487 22.9512 5.9213 23.2008 5.8026C23.4504 5.6839 23.7236 5.62313 24 5.62484C24.4973 5.62484 24.9742 5.82239 25.3258 6.17402C25.6775 6.52565 25.875 7.00256 25.875 7.49985C25.875 7.99713 25.6775 8.47404 25.3258 8.82567C24.9742 9.1773 24.4973 9.37484 24 9.37484H20.25C21.2655 8.02784 22.488 6.40184 22.5585 6.31034ZM10.125 7.49985C10.1258 7.00281 10.3236 6.52635 10.6751 6.1749C11.0265 5.82344 11.503 5.62564 12 5.62484C12.2714 5.62209 12.5399 5.68006 12.7859 5.79452C13.032 5.90898 13.2493 6.07702 13.422 6.28634C13.5 6.39284 14.7315 8.02484 15.75 9.37484H12C11.503 9.37405 11.0265 9.17625 10.6751 8.82479C10.3236 8.47334 10.1258 7.99688 10.125 7.49985ZM5.625 12.7498C5.6254 12.4516 5.74405 12.1657 5.95494 11.9548C6.16584 11.7439 6.45175 11.6252 6.75 11.6248H16.875V16.8748H5.625V12.7498ZM7.125 26.9998V19.1248H16.875V30.3748H10.5C8.1345 30.3748 7.125 29.3653 7.125 26.9998ZM28.875 26.9998C28.875 29.3653 27.8655 30.3748 25.5 30.3748H19.125V19.1248H28.875V26.9998Z" fill="white"/>
</svg>
