<svg width="27" height="27" viewBox="0 0 27 27" fill="none" xmlns="http://www.w3.org/2000/svg">
<path d="M21.9375 7.03138H20.7394C20.9689 6.59797 21.0905 6.11556 21.0938 5.62513C21.0945 4.98691 20.8976 4.36412 20.5301 3.8423C20.1626 3.32049 19.6426 2.92524 19.0415 2.71085C18.4404 2.49646 17.7876 2.47344 17.1729 2.64496C16.5581 2.81648 16.0116 3.17411 15.6082 3.66875C15.5779 3.71263 14.3134 5.38888 13.5 6.47113C12.6855 5.38775 11.4199 3.70475 11.3839 3.65863C10.9792 3.1664 10.4323 2.81129 9.81804 2.64193C9.20376 2.47256 8.55214 2.49722 7.95241 2.71252C7.35269 2.92783 6.83418 3.32325 6.46789 3.84465C6.10159 4.36605 5.90543 4.98793 5.90625 5.62513C5.9095 6.11556 6.03107 6.59797 6.26063 7.03138H5.0625C4.39144 7.03227 3.74813 7.29924 3.27362 7.77375C2.79911 8.24826 2.53214 8.89157 2.53125 9.56263V13.5001C2.53125 13.7239 2.62014 13.9385 2.77838 14.0967C2.93661 14.255 3.15122 14.3439 3.375 14.3439H3.65625V20.2501C3.59019 20.8201 3.65386 21.3977 3.84251 21.9396C4.03117 22.4815 4.33991 22.9737 4.74566 23.3795C5.1514 23.7852 5.64364 24.094 6.18555 24.2826C6.72746 24.4713 7.30501 24.5349 7.875 24.4689H19.125C19.695 24.5349 20.2725 24.4713 20.8145 24.2826C21.3564 24.094 21.8486 23.7852 22.2543 23.3795C22.6601 22.9737 22.9688 22.4815 23.1575 21.9396C23.3461 21.3977 23.4098 20.8201 23.3438 20.2501V14.3439H23.625C23.8488 14.3439 24.0634 14.255 24.2216 14.0967C24.3799 13.9385 24.4688 13.7239 24.4688 13.5001V9.56263C24.4679 8.89157 24.2009 8.24826 23.7264 7.77375C23.2519 7.29924 22.6086 7.03227 21.9375 7.03138ZM22.7812 9.56263V12.6564H14.3438V8.71888H21.9375C22.1612 8.71918 22.3756 8.80817 22.5338 8.96634C22.692 9.12451 22.781 9.33894 22.7812 9.56263ZM16.9189 4.733C17.0487 4.5714 17.2134 4.44122 17.4006 4.35219C17.5878 4.26317 17.7927 4.21759 18 4.21888C18.373 4.21888 18.7306 4.36704 18.9944 4.63076C19.2581 4.89448 19.4062 5.25217 19.4062 5.62513C19.4062 5.99809 19.2581 6.35577 18.9944 6.6195C18.7306 6.88322 18.373 7.03138 18 7.03138H15.1875C15.9491 6.02113 16.866 4.80163 16.9189 4.733ZM7.59375 5.62513C7.59435 5.25235 7.74269 4.89501 8.00629 4.63142C8.26988 4.36782 8.62722 4.21947 9 4.21888C9.20351 4.21681 9.40491 4.26029 9.58945 4.34613C9.77398 4.43198 9.93698 4.55801 10.0665 4.715C10.125 4.79488 11.0486 6.01888 11.8125 7.03138H9C8.62722 7.03078 8.26988 6.88243 8.00629 6.61884C7.74269 6.35525 7.59435 5.99791 7.59375 5.62513ZM4.21875 9.56263C4.21905 9.33894 4.30804 9.12451 4.46621 8.96634C4.62438 8.80817 4.83881 8.71918 5.0625 8.71888H12.6562V12.6564H4.21875V9.56263ZM5.34375 20.2501V14.3439H12.6562V22.7814H7.875C6.10087 22.7814 5.34375 22.0243 5.34375 20.2501ZM21.6562 20.2501C21.6562 22.0243 20.8991 22.7814 19.125 22.7814H14.3438V14.3439H21.6562V20.2501Z" fill="#FFBB00"/>
</svg>
