<svg width="36" height="36" viewBox="0 0 36 36" fill="none" xmlns="http://www.w3.org/2000/svg">
<path fill-rule="evenodd" clip-rule="evenodd" d="M18 22.875C18.6213 22.875 19.125 23.3787 19.125 24V28.5C19.125 29.1213 18.6213 29.625 18 29.625C17.3787 29.625 16.875 29.1213 16.875 28.5V24C16.875 23.3787 17.3787 22.875 18 22.875Z" fill="white"/>
<path fill-rule="evenodd" clip-rule="evenodd" d="M29.5667 9.04146L28.1436 8.56716L28.8552 6.43262L30.2781 6.90693C30.2969 6.91317 30.3155 6.91938 30.3341 6.92558C31.0287 7.15709 31.6376 7.36001 32.1207 7.58474C32.6429 7.82768 33.1215 8.14061 33.4874 8.64822C33.8532 9.15584 33.9987 9.70883 34.064 10.2811C34.1244 10.8104 34.1244 11.4522 34.1243 12.1845V12.3522V12.4023C34.1244 13.005 34.1244 13.5374 34.0799 13.9826C34.0317 14.4651 33.9249 14.9342 33.6581 15.3875C33.3914 15.8409 33.0332 16.1621 32.6348 16.4385C32.2671 16.6937 31.8018 16.9521 31.2749 17.2448L26.7957 19.7333L25.7031 17.7665L30.1385 15.3023C30.7221 14.978 31.0877 14.7735 31.352 14.5901C31.5956 14.421 31.6749 14.3213 31.7189 14.2465C31.763 14.1717 31.8116 14.0539 31.841 13.7588C31.8731 13.4388 31.8743 13.0199 31.8743 12.3522V12.2434C31.8744 11.4347 31.8726 10.9227 31.8285 10.5362C31.7877 10.1784 31.7208 10.0454 31.662 9.9638C31.6032 9.88215 31.4982 9.77669 31.1717 9.62478C30.8189 9.4607 30.3338 9.29718 29.5667 9.04146Z" fill="white"/>
<path fill-rule="evenodd" clip-rule="evenodd" d="M5.72123 6.90693L7.14417 6.43262L7.85568 8.56716L6.43274 9.04146C5.66562 9.29718 5.18043 9.4607 4.82771 9.62478C4.5012 9.77669 4.39616 9.88215 4.33731 9.9638C4.27847 10.0454 4.21163 10.1784 4.1708 10.5362C4.12667 10.9227 4.12499 11.4347 4.12502 12.2434V12.3522C4.12503 13.0199 4.12634 13.4388 4.15832 13.7588C4.18781 14.0539 4.23642 14.1717 4.28045 14.2465C4.32447 14.3213 4.40382 14.421 4.64744 14.5901C4.91171 14.7735 5.27721 14.978 5.86094 15.3023L10.2963 17.7665L9.20357 19.7333L4.72443 17.2448C4.19754 16.9521 3.7322 16.6937 3.36461 16.4385C2.96622 16.1621 2.60801 15.8409 2.34125 15.3875C2.07449 14.9342 1.9677 14.4651 1.91948 13.9826C1.87499 13.5374 1.875 13.005 1.87502 12.4023C1.87502 12.3857 1.87502 12.369 1.87502 12.3522V12.2434C1.875 12.2237 1.875 12.204 1.875 12.1845C1.87494 11.4522 1.87488 10.8104 1.9353 10.2811C2.00063 9.70883 2.14614 9.15584 2.51199 8.64822C2.87786 8.14061 3.35643 7.82768 3.87866 7.58474C4.36172 7.36001 4.9706 7.15709 5.66529 6.92558C5.68388 6.91938 5.70252 6.91317 5.72123 6.90693Z" fill="white"/>
<path fill-rule="evenodd" clip-rule="evenodd" d="M7.875 33C7.875 32.3787 8.37868 31.875 9 31.875H27C27.6213 31.875 28.125 32.3787 28.125 33C28.125 33.6213 27.6213 34.125 27 34.125H9C8.37868 34.125 7.875 33.6213 7.875 33Z" fill="white"/>
<path fill-rule="evenodd" clip-rule="evenodd" d="M11.2466 2.41079C12.9909 2.11649 15.2577 1.875 17.9992 1.875C20.7408 1.875 23.0074 2.11649 24.7518 2.41079C24.8197 2.42226 24.8872 2.43354 24.9541 2.44475C26.4694 2.6984 27.729 2.90924 28.7137 4.12212C29.6994 5.33609 29.6431 6.70294 29.5749 8.35833C29.5716 8.43963 29.5683 8.52162 29.565 8.60433C29.4283 12.046 28.9744 16.11 27.3654 19.3424C26.5521 20.9762 25.4259 22.4348 23.8642 23.4822C22.2951 24.5346 20.3556 25.125 17.9992 25.125C15.6429 25.125 13.7034 24.5346 12.1342 23.4822C10.5726 22.4348 9.44628 20.9762 8.63298 19.3424C7.02403 16.11 6.5701 12.046 6.43345 8.60433C6.43018 8.52162 6.42679 8.43963 6.42345 8.35833C6.35527 6.70294 6.29898 5.33609 7.28466 4.12212C8.26945 2.90924 9.52896 2.6984 11.0443 2.44475C11.1112 2.43354 11.1786 2.42226 11.2466 2.41079ZM17.9992 4.125C15.3901 4.125 13.2488 4.35478 11.6209 4.62943C9.81054 4.93488 9.43023 5.04915 9.03138 5.54037C8.6383 6.02448 8.60098 6.48234 8.68168 8.51508C8.81619 11.9031 9.26311 15.5591 10.6472 18.3396C11.3304 19.7121 12.2237 20.833 13.3875 21.6135C14.5438 22.3892 16.0356 22.875 17.9992 22.875C19.9627 22.875 21.4546 22.3892 22.6108 21.6135C23.7747 20.833 24.6679 19.7121 25.3512 18.3396C26.7352 15.5591 27.1822 11.9031 27.3168 8.51508C27.3975 6.48234 27.3601 6.02448 26.967 5.54037C26.5681 5.04915 26.1879 4.93488 24.3775 4.62943C22.7496 4.35478 20.6082 4.125 17.9992 4.125Z" fill="white"/>
<path fill-rule="evenodd" clip-rule="evenodd" d="M12.1557 30.2352C12.4011 29.0082 13.4784 28.125 14.7297 28.125H21.2703C22.5216 28.125 23.5989 29.0082 23.8443 30.2352L24.3532 32.7793C24.4192 33.1098 24.3337 33.4525 24.12 33.7133C23.9064 33.974 23.587 34.125 23.25 34.125H12.75C12.413 34.125 12.0937 33.974 11.88 33.7133C11.6663 33.4525 11.5808 33.1098 11.6469 32.7793L12.1557 30.2352ZM14.7297 30.375C14.551 30.375 14.3971 30.5012 14.362 30.6765L14.1223 31.875H21.8778L21.6381 30.6765C21.603 30.5012 21.4491 30.375 21.2703 30.375H14.7297Z" fill="white"/>
<path fill-rule="evenodd" clip-rule="evenodd" d="M18.0007 9.05172C17.9136 9.2027 17.8165 9.37655 17.7024 9.58154L17.5549 9.84608C17.5444 9.86475 17.5333 9.88513 17.5213 9.90699C17.4036 10.1224 17.2084 10.4792 16.8832 10.7261C16.5511 10.9782 16.1517 11.0649 15.9181 11.1156C15.8947 11.1207 15.873 11.1254 15.8532 11.1299L15.5668 11.1947C15.304 11.2541 15.09 11.3026 14.907 11.3486C15.0261 11.4952 15.1807 11.6771 15.3819 11.9123L15.577 12.1406C15.5908 12.1568 15.606 12.1741 15.622 12.1926C15.7839 12.3791 16.0453 12.6802 16.1662 13.0689C16.2856 13.453 16.2444 13.8486 16.2184 14.0982C16.2159 14.1231 16.2133 14.1466 16.2112 14.1684L16.1817 14.473C16.1544 14.7554 16.1331 14.9808 16.119 15.1641C16.2753 15.0953 16.453 15.0133 16.6644 14.9161L16.9324 14.7927C16.9509 14.7842 16.9711 14.7747 16.993 14.7644C17.2083 14.6628 17.5828 14.4862 18.0007 14.4862C18.4188 14.4862 18.7933 14.6628 19.0086 14.7644C19.0305 14.7747 19.0506 14.7842 19.0692 14.7927L19.3372 14.9162C19.5484 15.0134 19.7263 15.0953 19.8826 15.1641C19.8684 14.9808 19.8471 14.7554 19.8198 14.473L19.7902 14.1684C19.7881 14.1466 19.7857 14.1231 19.7832 14.0982C19.7571 13.8486 19.716 13.453 19.8354 13.0689C19.9563 12.6802 20.2176 12.3791 20.3796 12.1926C20.3956 12.1741 20.4106 12.1568 20.4244 12.1406L20.6197 11.9123C20.8209 11.6771 20.9755 11.4952 21.0945 11.3486C20.9115 11.3026 20.6974 11.2541 20.4348 11.1947L20.1483 11.1299C20.1285 11.1254 20.1067 11.1207 20.0833 11.1156C19.8498 11.0649 19.4503 10.9782 19.1184 10.7261C18.793 10.4792 18.598 10.1224 18.4801 9.90699C18.4683 9.88513 18.457 9.86475 18.4467 9.84608L18.2992 9.58154C18.1849 9.37655 18.088 9.2027 18.0007 9.05172ZM16.521 7.19945C16.7793 6.86222 17.2482 6.375 18.0007 6.375C18.7533 6.375 19.2223 6.86222 19.4805 7.19945C19.7271 7.52132 19.9752 7.96686 20.2297 8.42365C20.2413 8.44441 20.2528 8.46521 20.2645 8.48601L20.412 8.75054C20.4462 8.81189 20.473 8.86015 20.4966 8.90145C20.5377 8.91106 20.5852 8.92188 20.6449 8.93535L20.9313 9.00015C20.9547 9.00546 20.9781 9.01076 21.0016 9.01605C21.4933 9.12717 21.982 9.23758 22.3572 9.38542C22.7713 9.54865 23.3328 9.86655 23.5492 10.5624C23.7618 11.246 23.4936 11.825 23.2593 12.1972C23.0424 12.5416 22.7128 12.9268 22.3755 13.3211C22.3602 13.3389 22.345 13.3568 22.3297 13.3746L22.1344 13.6029C22.0828 13.6634 22.0438 13.709 22.011 13.7485C22.0155 13.803 22.0215 13.8665 22.0297 13.9514L22.0593 14.256C22.0615 14.2792 22.0638 14.3024 22.066 14.3256C22.1173 14.8535 22.1668 15.3636 22.1487 15.7717C22.1296 16.1995 22.0269 16.8472 21.4462 17.2881C20.8471 17.7429 20.1853 17.6439 19.7658 17.5236C19.3792 17.4129 18.9223 17.2023 18.4623 16.9903C18.4402 16.9801 18.4182 16.9701 18.3963 16.9599L18.1281 16.8365C18.078 16.8134 18.0367 16.7944 18.0007 16.7781C17.9649 16.7944 17.9236 16.8134 17.8734 16.8365L17.6053 16.9599C17.5833 16.9701 17.5612 16.9801 17.5392 16.9903C17.0791 17.2023 16.6224 17.4129 16.2357 17.5236C15.8161 17.6439 15.1545 17.7429 14.5554 17.2881C13.9746 16.8472 13.8719 16.1995 13.8529 15.7717C13.8347 15.3636 13.8842 14.8535 13.9355 14.3256C13.9378 14.3024 13.94 14.2792 13.9423 14.256L13.9718 13.9514C13.98 13.8665 13.9861 13.803 13.9906 13.7485C13.9578 13.709 13.9188 13.6634 13.867 13.6029L13.6718 13.3746C13.6566 13.3568 13.6413 13.3389 13.6261 13.3211C13.2887 12.9268 12.9591 12.5416 12.7423 12.1972C12.508 11.825 12.2398 11.246 12.4524 10.5624C12.6688 9.86655 13.2302 9.54865 13.6444 9.38542C14.0195 9.2376 14.5082 9.12717 14.9999 9.01605C15.0234 9.01076 15.0468 9.00546 15.0703 9.00015L15.3567 8.93537C15.4162 8.92188 15.4639 8.91106 15.5049 8.90145C15.5284 8.86015 15.5554 8.81189 15.5896 8.75054L15.7371 8.48601C15.7486 8.46521 15.7602 8.44441 15.7717 8.42364C16.0263 7.96686 16.2745 7.52132 16.521 7.19945Z" fill="white"/>
</svg>
