<svg width="36" height="36" viewBox="0 0 36 36" fill="none" xmlns="http://www.w3.org/2000/svg">
<path d="M32.625 15.4125C31.8375 10.4625 27.5625 6.75 22.6125 6.75H13.5C8.4375 6.75 4.1625 10.4625 3.375 15.4125C2.5875 20.7 2.25 23.0625 2.25 23.9625C2.25 29.475 9.7875 31.275 12.2625 26.325L14.175 22.5H21.825L23.7375 26.325C26.2125 31.275 33.75 29.475 33.75 23.9625C33.75 23.175 33.75 24.1875 32.625 15.4125ZM31.5 23.9625C31.5 27.1125 27.1125 28.2375 25.7625 25.3125L23.5125 20.8125C23.2875 20.475 22.95 20.25 22.5 20.25H13.5C13.05 20.25 12.7125 20.475 12.4875 20.925L10.2375 25.425C8.8875 28.2375 4.5 27.1125 4.5 23.9625L5.625 15.75C6.1875 11.925 9.5625 9 13.3875 9H22.5C26.4375 9 29.7 11.925 30.2625 15.75C30.375 15.8625 31.6125 24.525 31.5 23.9625Z" fill="#A28BFF"/>
<path d="M15.75 14.625C15.75 15.3 15.3 15.75 14.625 15.75H13.5V16.875C13.5 17.55 13.05 18 12.375 18C11.7 18 11.25 17.55 11.25 16.875V15.75H10.125C9.45 15.75 9 15.3 9 14.625C9 13.95 9.45 13.5 10.125 13.5H11.25V12.375C11.25 11.7 11.7 11.25 12.375 11.25C13.05 11.25 13.5 11.7 13.5 12.375V13.5H14.625C15.3 13.5 15.75 13.95 15.75 14.625Z" fill="#A28BFF"/>
<path d="M22.5 14.625C22.5 15.3 22.05 15.75 21.375 15.75C20.7 15.75 20.25 15.3 20.25 14.625C20.25 13.95 20.7 13.5 21.375 13.5C22.05 13.5 22.5 13.95 22.5 14.625Z" fill="#A28BFF"/>
<path d="M24.75 16.875C24.75 17.55 24.3 18 23.625 18C22.95 18 22.5 17.55 22.5 16.875C22.5 16.2 22.95 15.75 23.625 15.75C24.3 15.75 24.75 16.2 24.75 16.875Z" fill="#A28BFF"/>
<path d="M27 14.625C27 15.3 26.55 15.75 25.875 15.75C25.2 15.75 24.75 15.3 24.75 14.625C24.75 13.95 25.2 13.5 25.875 13.5C26.55 13.5 27 13.95 27 14.625Z" fill="#A28BFF"/>
<path d="M22.5 12.375C22.5 11.7 22.95 11.25 23.625 11.25C24.3 11.25 24.75 11.7 24.75 12.375C24.75 13.05 24.3 13.5 23.625 13.5C22.95 13.5 22.5 13.05 22.5 12.375Z" fill="#A28BFF"/>
</svg>
