<svg width="36" height="36" viewBox="0 0 36 36" fill="none" xmlns="http://www.w3.org/2000/svg">
<path d="M30.7525 5.24731C24.039 -1.74893 11.9605 -1.74935 5.24729 5.24752C-1.74888 11.96 -1.74931 24.04 5.24729 30.7526C11.9604 37.7492 24.0396 37.7489 30.7526 30.7526C37.7492 24.0394 37.7489 11.9603 30.7525 5.24731ZM5.31391 16.939H2.12292C2.36041 13.3483 3.79374 10.0796 6.0281 7.52828L8.28382 9.784C6.61908 11.7496 5.53889 14.2246 5.31391 16.939ZM26.2157 8.28377C24.2501 6.6191 21.7751 5.53884 19.0608 5.31387V2.12287C22.6514 2.36044 25.9202 3.79376 28.4715 6.02805L26.2157 8.28377ZM16.939 5.31387C14.2247 5.53891 11.7496 6.6191 9.78405 8.2837L7.52833 6.02798C10.0795 3.79362 13.3483 2.36044 16.939 2.1228V5.31387ZM17.9999 7.39107C23.8496 7.39107 28.6087 12.1502 28.6087 17.9999C28.0753 32.0546 7.92227 32.0508 7.39105 17.9998C7.39105 12.1502 12.1502 7.39107 17.9999 7.39107ZM9.78405 27.7161C11.7497 29.3807 14.2247 30.461 16.939 30.6859V33.8769C13.3483 33.6394 10.0795 32.2061 7.52833 29.9718L9.78405 27.7161ZM19.0608 30.6859C21.7751 30.4609 24.2501 29.3807 26.2157 27.716L28.4715 29.9718C25.9203 32.2061 22.6515 33.6394 19.0608 33.877V30.6859ZM27.716 26.2157C29.3807 24.2502 30.4609 21.7752 30.6859 19.0608H33.8769C33.6394 22.6515 32.2061 25.9202 29.9717 28.4715L27.716 26.2157ZM30.686 16.939C30.4609 14.2246 29.3807 11.7497 27.7161 9.78407L29.9719 7.52835C32.2062 10.0796 33.6395 13.3484 33.877 16.9391H30.686V16.939ZM2.12292 19.0608H5.31391C5.53896 21.7752 6.61915 24.2502 8.28382 26.2158L6.0281 28.4715C3.79374 25.9203 2.36041 22.6515 2.12292 19.0608Z" fill="#ADFF86"/>
<path d="M16.9372 20.9998V24.3649H19.059V20.9998C19.9617 20.6796 20.6781 19.9632 20.9983 19.0605H24.3634V16.9387H20.9983C20.6781 16.036 19.9617 15.3196 19.059 14.9994V11.6343H16.9372V14.9994C16.0345 15.3196 15.3181 16.036 14.9979 16.9387H11.6328V19.0605H14.9979C15.3182 19.9632 16.0346 20.6796 16.9372 20.9998ZM17.9981 16.9387C18.5831 16.9387 19.059 17.4146 19.059 17.9996C19.0057 19.405 16.9903 19.4047 16.9372 17.9996C16.9372 17.4146 17.4131 16.9387 17.9981 16.9387Z" fill="#ADFF86"/>
</svg>
