<svg width="36" height="36" viewBox="0 0 36 36" fill="none" xmlns="http://www.w3.org/2000/svg">
<g clip-path="url(#clip0_2267_3277)">
<path d="M22.6946 14.0869H6.25987C5.61159 14.0869 5.08594 14.6125 5.08594 15.2609V25.4348C5.08594 26.0831 5.61152 26.6087 6.25987 26.6087H22.6946C23.3429 26.6087 23.8686 26.0831 23.8686 25.4348V15.2608C23.8685 14.6125 23.3429 14.0869 22.6946 14.0869ZM10.5642 24.2608H7.43374V16.4347H10.5642V24.2608ZM16.0425 24.2608H12.912V16.4347H16.0425V24.2608ZM21.5207 24.2608H18.3903V16.4347H21.5207V24.2608Z" fill="#FE4F4F"/>
<path d="M32.4783 0C30.5364 0 28.9565 1.57985 28.9565 3.52174C28.9565 5.05216 29.938 6.35695 31.3043 6.84155V16.4348H28.9565V14.4783C28.9565 6.49498 22.4617 0 14.4783 0C6.49498 0 0 6.49498 0 14.4783V32.4783C0 34.4201 1.57985 36 3.52174 36H25.4348C27.3767 36 28.9565 34.4201 28.9565 32.4783V18.7826H32.4783C33.1265 18.7826 33.6522 18.257 33.6522 17.6086V6.84155C35.0185 6.35695 36 5.05216 36 3.52174C36 1.57985 34.4201 0 32.4783 0ZM26.6087 32.4783C26.6087 33.1256 26.0821 33.6522 25.4348 33.6522H3.52174C2.87445 33.6522 2.3478 33.1256 2.3478 32.4783V14.4783C2.3478 7.78957 7.7895 2.3478 14.4783 2.3478C21.167 2.3478 26.6087 7.7895 26.6087 14.4783V32.4783ZM32.4783 4.69568C31.831 4.69568 31.3043 4.16904 31.3043 3.52174C31.3043 2.87445 31.831 2.3478 32.4783 2.3478C33.1256 2.3478 33.6522 2.87445 33.6522 3.52174C33.6522 4.16904 33.1256 4.69568 32.4783 4.69568Z" fill="#FE4F4F"/>
<path d="M22.2272 10.1731C21.0656 6.897 17.9521 4.6958 14.4795 4.6958C11.0069 4.6958 7.89334 6.89693 6.73185 10.1731C6.51522 10.7842 6.835 11.4552 7.44609 11.6719C8.05731 11.8886 8.72816 11.5688 8.9448 10.9578C9.77476 8.61657 11.999 7.04368 14.4796 7.04368C16.9601 7.04368 19.1843 8.61664 20.0144 10.9578C20.1852 11.4391 20.6377 11.7398 21.1209 11.7396C21.251 11.7396 21.3834 11.7178 21.5132 11.6719C22.1242 11.4552 22.444 10.7842 22.2272 10.1731Z" fill="#FE4F4F"/>
<path d="M14.4786 11.739C15.127 11.739 15.6526 11.2134 15.6526 10.5651C15.6526 9.9167 15.127 9.39111 14.4786 9.39111C13.8303 9.39111 13.3047 9.9167 13.3047 10.5651C13.3047 11.2134 13.8303 11.739 14.4786 11.739Z" fill="#FE4F4F"/>
<path d="M20.3466 28.9565H8.60753C7.95925 28.9565 7.43359 29.4821 7.43359 30.1305C7.43359 30.7788 7.95918 31.3044 8.60753 31.3044H20.3466C20.9949 31.3044 21.5206 30.7788 21.5206 30.1305C21.5206 29.4821 20.995 28.9565 20.3466 28.9565Z" fill="#FE4F4F"/>
</g>
<defs>
<clipPath id="clip0_2267_3277">
<rect width="36" height="36" fill="white"/>
</clipPath>
</defs>
</svg>
