<svg width="36" height="36" viewBox="0 0 36 36" fill="none" xmlns="http://www.w3.org/2000/svg">
<path d="M23.4044 16.3039C23.389 16.2941 23.3726 16.2853 23.3561 16.2776L15.681 12.3258C15.0663 11.9709 14.3347 11.972 13.7216 12.3258C13.1086 12.6806 12.7422 13.3146 12.7422 14.0232V21.9773C12.7422 22.6859 13.1086 23.3198 13.7216 23.6747C14.0342 23.8548 14.3775 23.9427 14.7142 23.9427C15.0383 23.9427 15.3558 23.8614 15.6338 23.6999L23.4044 19.6965C24.0175 19.3417 24.3833 18.7077 24.3833 18.0002C24.3833 17.2927 24.0175 16.6588 23.4044 16.3039ZM14.9922 14.5011L21.7872 18.0002L14.9922 21.5016V14.5011Z" fill="#F73E3E"/>
<path d="M29.1431 6.86328C28.7036 6.42383 27.9917 6.42383 27.5522 6.86328C27.1128 7.30273 27.1128 8.01465 27.5522 8.4541C30.0978 10.9996 31.4996 14.39 31.4996 18.0001C31.4996 21.6102 30.0978 25.0006 27.5522 27.5461C27.1128 27.9856 27.1128 28.6975 27.5522 29.137C27.772 29.3567 28.0598 29.4666 28.3477 29.4666C28.6355 29.4666 28.9233 29.3567 29.1431 29.137C32.1138 26.1674 33.7496 22.2123 33.7496 18.0001C33.7496 13.788 32.1138 9.83289 29.1431 6.86328Z" fill="#F73E3E"/>
<path d="M25.9126 10.0952C25.4731 9.65576 24.7612 9.65576 24.3218 10.0952C23.8823 10.5347 23.8823 11.2466 24.3218 11.686C27.8033 15.1676 27.8033 20.8322 24.3218 24.3137C23.8823 24.7532 23.8823 25.4651 24.3218 25.9045C24.5415 26.1243 24.8293 26.2341 25.1172 26.2341C25.405 26.2341 25.6929 26.1243 25.9126 25.9045C28.0209 23.7963 29.1821 20.9893 29.1821 17.9999C29.1821 15.0105 28.0209 12.2035 25.9126 10.0952Z" fill="#F73E3E"/>
<path d="M8.44684 8.4541C8.88629 8.01465 8.88629 7.30273 8.44684 6.86328C8.00739 6.42383 7.29547 6.42383 6.85602 6.86328C3.88586 9.83289 2.25 13.7891 2.25 18.0001C2.25 22.2112 3.88586 26.1674 6.85602 29.137C7.07574 29.3567 7.36359 29.4666 7.65143 29.4666C7.93927 29.4666 8.22711 29.3567 8.44684 29.137C8.88629 28.6975 8.88629 27.9856 8.44684 27.5461C3.18329 22.2826 3.18329 13.7177 8.44684 8.4541Z" fill="#F73E3E"/>
<path d="M11.6773 10.0952C11.2379 9.65576 10.5259 9.65576 10.0865 10.0952C7.97766 12.2035 6.81641 15.0105 6.81641 17.9999C6.81641 20.9893 7.97766 23.7963 10.0865 25.9045C10.3062 26.1243 10.5941 26.2341 10.8819 26.2341C11.1697 26.2341 11.4576 26.1243 11.6773 25.9045C12.1168 25.4651 12.1168 24.7532 11.6773 24.3137C9.99365 22.6306 9.06641 20.3883 9.06641 17.9999C9.06641 15.6115 9.99365 13.3691 11.6773 11.686C12.1168 11.2466 12.1168 10.5347 11.6773 10.0952Z" fill="#F73E3E"/>
</svg>
