<svg width="36" height="36" viewBox="0 0 36 36" fill="none" xmlns="http://www.w3.org/2000/svg">
<path d="M27.5608 6.89863L6.86719 27.5571L8.37437 29.0669L29.068 8.40837L27.5608 6.89863Z" fill="#40E8FF"/>
<path d="M8.37437 6.89846L6.86719 8.4082L27.5608 29.0667L29.068 27.557L8.37437 6.89846Z" fill="#40E8FF"/>
<path d="M21.2908 21.5474C18.3518 24.4861 16.9445 28.539 17.4302 32.6663L19.5485 32.4171C19.1397 28.9426 20.3247 25.5303 22.799 23.0556C25.3644 20.4903 29.0224 19.2999 32.5779 19.8702L32.916 17.7639C28.6853 17.0848 24.3386 18.4996 21.2908 21.5474Z" fill="#40E8FF"/>
<path d="M17.4614 3.31055L15.3338 3.46417C15.5699 6.7378 14.361 9.9598 12.0115 12.3094C9.70113 14.6507 6.56975 15.8262 3.20081 15.6203L3.07031 17.7497C3.36969 17.7682 3.66656 17.7771 3.96238 17.7771C7.61644 17.7771 10.9864 16.3862 13.5251 13.8127C16.3077 11.03 17.7424 7.20211 17.4614 3.31055Z" fill="#40E8FF"/>
<path d="M18 2C9.17762 2 2 9.17762 2 18C2 26.8224 9.17762 34 18 34C26.8224 34 34 26.8224 34 18C34 9.17762 26.8224 2 18 2ZM18 31.8667C10.3538 31.8667 4.13331 25.6462 4.13331 18C4.13331 10.3538 10.3538 4.13331 18 4.13331C25.6462 4.13331 31.8667 10.3538 31.8667 18C31.8667 25.6462 25.6462 31.8667 18 31.8667Z" fill="#40E8FF"/>
</svg>
