<svg width="36" height="36" viewBox="0 0 36 36" fill="none" xmlns="http://www.w3.org/2000/svg">
<path d="M26.3307 31.2218H9.67104C9.06391 31.2226 8.47402 31.02 7.99554 30.6463C7.51707 30.2725 7.17761 29.7493 7.03137 29.16L4.46352 18.8915C4.3831 18.5693 4.38744 18.2318 4.47613 17.9119C4.56482 17.5919 4.73483 17.3003 4.96962 17.0655C5.2044 16.8307 5.49597 16.6607 5.81594 16.5721C6.13592 16.4834 6.4734 16.479 6.79555 16.5594L10.8964 17.5848C10.9839 17.6066 11.0759 17.6029 11.1613 17.5739C11.2468 17.5449 11.3221 17.492 11.3783 17.4215L15.8761 11.7995C16.1394 11.4939 16.4654 11.2486 16.8321 11.0805C17.1987 10.9123 17.5973 10.8253 18.0007 10.8252C18.4041 10.8251 18.8027 10.9121 19.1694 11.0801C19.5361 11.2481 19.8623 11.4932 20.1256 11.7988L24.6234 17.4223C24.6805 17.4922 24.7561 17.5445 24.8417 17.5733C24.9272 17.6021 25.0191 17.6061 25.1068 17.5849L29.2055 16.5595C29.5276 16.4789 29.8651 16.4832 30.1851 16.5718C30.5051 16.6604 30.7967 16.8303 31.0315 17.065C31.2664 17.2997 31.4365 17.5912 31.5253 17.9112C31.6141 18.2311 31.6185 18.5686 31.5382 18.8908L28.9704 29.1608C28.824 29.7499 28.4844 30.2729 28.006 30.6465C27.5275 31.0201 26.9377 31.2226 26.3307 31.2218ZM6.77869 18.8746L9.214 28.6144C9.2392 28.7165 9.29793 28.8072 9.38079 28.872C9.46365 28.9368 9.56585 28.9719 9.67104 28.9718H26.3307C26.4358 28.9719 26.5379 28.9369 26.6207 28.8723C26.7036 28.8076 26.7624 28.7171 26.7877 28.6151L29.223 18.8746L25.6518 19.7674C25.1463 19.893 24.6155 19.8712 24.122 19.7047C23.6286 19.5382 23.1931 19.2339 22.8671 18.8277L18.3693 13.2042C18.1232 12.8981 17.8786 12.8974 17.6325 13.205L13.1347 18.827C12.8089 19.2331 12.3737 19.5375 11.8805 19.7041C11.3873 19.8708 10.8567 19.8927 10.3515 19.7674L6.77869 18.8746Z" fill="white"/>
<path d="M4.125 15.375C5.36764 15.375 6.375 14.3676 6.375 13.125C6.375 11.8824 5.36764 10.875 4.125 10.875C2.88236 10.875 1.875 11.8824 1.875 13.125C1.875 14.3676 2.88236 15.375 4.125 15.375Z" fill="white"/>
<path d="M31.875 15.375C33.1176 15.375 34.125 14.3676 34.125 13.125C34.125 11.8824 33.1176 10.875 31.875 10.875C30.6324 10.875 29.625 11.8824 29.625 13.125C29.625 14.3676 30.6324 15.375 31.875 15.375Z" fill="white"/>
<path d="M18 9C19.2426 9 20.25 7.99264 20.25 6.75C20.25 5.50736 19.2426 4.5 18 4.5C16.7574 4.5 15.75 5.50736 15.75 6.75C15.75 7.99264 16.7574 9 18 9Z" fill="white"/>
</svg>
