<svg width="36" height="36" viewBox="0 0 36 36" fill="none" xmlns="http://www.w3.org/2000/svg">
<g clip-path="url(#clip0_2267_3245)">
<path d="M32.0625 16.875C32.0625 10.8127 28.1771 5.49 22.561 3.56899L23.4246 2.12977C23.6853 1.6953 23.6921 1.15425 23.4425 0.713391C23.1929 0.272531 22.7254 0 22.2188 0H13.7812C13.2746 0 12.8071 0.272531 12.5575 0.713391C12.3079 1.15425 12.3147 1.6953 12.5754 2.12977L13.4389 3.56899C7.84385 5.48276 3.9375 10.7911 3.9375 16.875C3.9375 22.1646 6.88683 26.8822 11.4045 29.2916L9.98459 33.1875H8.15625C7.37958 33.1875 6.75 33.8171 6.75 34.5938C6.75 35.3704 7.37958 36 8.15625 36H27.8438C28.6204 36 29.25 35.3704 29.25 34.5938C29.25 33.8171 28.6204 33.1875 27.8438 33.1875H26.0154L24.5955 29.2916C29.1284 26.8741 32.0625 22.1449 32.0625 16.875ZM19.4062 28.0373V20.8519C19.8988 20.6772 20.3492 20.4134 20.7387 20.08L26.9589 23.6712C25.1705 26.0229 22.4793 27.6524 19.4062 28.0373ZM6.75 16.875C6.75 15.3378 7.0624 13.8614 7.63088 12.5122L13.853 16.1045C13.8067 16.3545 13.7812 16.6117 13.7812 16.875C13.7812 17.1383 13.8067 17.3955 13.853 17.6455L7.63066 21.238C7.06373 19.8956 6.75 18.4213 6.75 16.875ZM29.25 16.875C29.25 18.4213 28.9363 19.8956 28.3693 21.238L22.147 17.6455C22.1933 17.3955 22.2188 17.1383 22.2188 16.875C22.2188 16.6117 22.1933 16.3545 22.147 16.1045L28.3691 12.5122C28.9376 13.8614 29.25 15.3378 29.25 16.875ZM17.9996 15.4688H18C18 15.4688 18.0002 15.4688 18.0004 15.4688C18.7755 15.469 19.4062 16.0997 19.4062 16.875C19.4062 17.6504 18.7754 18.2812 18 18.2812C17.2246 18.2812 16.5938 17.6504 16.5938 16.875C16.5938 16.0997 17.2245 15.469 17.9996 15.4688ZM26.9627 10.0766L20.7387 13.6699C20.3492 13.3366 19.8988 13.0728 19.4062 12.8981V8.82696L21.0728 6.04934C23.4711 6.72708 25.5171 8.16954 26.9627 10.0766ZM19.735 2.8125L18 5.70424L16.265 2.8125H19.735ZM14.9272 6.04941L16.5938 8.82703V12.8981C16.1012 13.0728 15.6508 13.3366 15.2613 13.67L9.03734 10.0767C10.4829 8.16954 12.5289 6.72708 14.9272 6.04941ZM9.04113 23.6712L15.2613 20.08C15.6508 20.4133 16.1012 20.6771 16.5938 20.8519V28.0373C13.5207 27.6524 10.8295 26.0229 9.04113 23.6712ZM23.0219 33.1875H12.9781L14.0088 30.3596C15.2746 30.735 16.614 30.9375 18 30.9375C19.386 30.9375 20.7254 30.735 21.9912 30.3596L23.0219 33.1875Z" fill="white"/>
</g>
<defs>
<clipPath id="clip0_2267_3245">
<rect width="36" height="36" fill="white"/>
</clipPath>
</defs>
</svg>
