<svg width="20" height="21" viewBox="0 0 20 21" fill="none" xmlns="http://www.w3.org/2000/svg">
<path d="M12.8124 12.2708L13.4583 9.93748C13.5138 9.77082 13.5103 9.60415 13.4478 9.43748C13.3853 9.27082 13.2777 9.13193 13.1249 9.02082L11.1458 7.66665C11.0346 7.58332 10.9131 7.56596 10.7812 7.61457C10.6492 7.66318 10.5624 7.75693 10.5208 7.89582L9.87492 10.2291C9.81937 10.3958 9.82284 10.5625 9.88534 10.7291C9.94784 10.8958 10.0555 11.0347 10.2083 11.1458L12.1874 12.5C12.2985 12.5833 12.4201 12.6007 12.552 12.5521C12.684 12.5035 12.7708 12.4097 12.8124 12.2708ZM3.33326 16.1875L2.64576 15.8542C2.2152 15.6736 1.92353 15.3646 1.77076 14.9271C1.61798 14.4896 1.63881 14.0555 1.83326 13.625L3.33326 10.375L3.33326 16.1875ZM6.66659 18C6.20825 18 5.81589 17.8333 5.48951 17.5C5.16312 17.1667 4.99992 16.7708 4.99992 16.3125V11.3333L7.22909 17.4583C7.27076 17.5555 7.30548 17.6493 7.33326 17.7396C7.36103 17.8298 7.40964 17.9166 7.47909 18H6.66659ZM10.9583 17.8958C10.5277 18.0486 10.0971 18.0278 9.66659 17.8333C9.23603 17.6389 8.94437 17.3264 8.79159 16.8958L5.10409 6.70832C4.95131 6.27776 4.97214 5.85068 5.16659 5.42707C5.36103 5.00345 5.67353 4.71526 6.10409 4.56248L12.3749 2.27082C12.8055 2.11804 13.2326 2.13887 13.6562 2.33332C14.0798 2.52776 14.368 2.84026 14.5208 3.27082L18.2291 13.4583C18.3819 13.8889 18.361 14.316 18.1666 14.7396C17.9721 15.1632 17.6596 15.4514 17.2291 15.6041L10.9583 17.8958Z" fill="#8696AD"/>
</svg>
