<svg width="20" height="21" viewBox="0 0 20 21" fill="none" xmlns="http://www.w3.org/2000/svg">
<path d="M15.2626 4.44175C14.0531 3.90356 12.5745 3.63446 10.8268 3.63446C9.07914 3.63446 7.60055 3.90356 6.39106 4.44175C5.18157 4.97995 4.57682 5.65407 4.57682 6.42953L5.96571 6.4296C6.02358 6.25599 6.20877 6.08527 6.52127 5.91745C6.83377 5.74962 7.2215 5.59916 7.68446 5.46606C8.14742 5.33295 8.65379 5.22589 9.20356 5.14488C9.75333 5.06386 10.2944 5.02335 10.8268 5.02335C11.3592 5.02335 11.9032 5.06386 12.4588 5.14488C13.0143 5.2259 13.5236 5.33296 13.9865 5.46606C14.4495 5.59916 14.8343 5.74673 15.1411 5.90877C15.4478 6.0708 15.6301 6.25592 15.6879 6.42953H17.0768C17.0768 5.6541 16.472 4.97993 15.2626 4.44175Z" fill="#8696AD"/>
<path fill-rule="evenodd" clip-rule="evenodd" d="M6.39106 11.5077C7.60055 12.0458 9.07914 12.3149 10.8268 12.3149C12.113 12.3149 13.2534 12.1692 14.2481 11.8777C14.605 11.7731 14.9432 11.6498 15.2626 11.5077C15.3631 11.4629 15.4595 11.4174 15.5516 11.371C16.5684 10.8595 17.0768 10.2482 17.0768 9.53717V6.42953H15.6879V7.81842V9.51981C15.6301 9.69342 15.4449 9.86414 15.1324 10.032C14.9454 10.1324 14.7316 10.2265 14.4908 10.3145C14.3291 10.3736 14.1552 10.4299 13.9692 10.4834C13.5062 10.6165 12.9999 10.7235 12.4501 10.8045C12.2913 10.8279 12.1332 10.848 11.9759 10.8646C11.5885 10.9056 11.2054 10.9261 10.8268 10.9261C10.2944 10.9261 9.75043 10.8856 9.19488 10.8045C8.87781 10.7583 8.57581 10.7036 8.2889 10.6404C8.0731 10.5928 7.86584 10.5405 7.6671 10.4834C7.20414 10.3502 6.8193 10.2027 6.51259 10.0406C6.26063 9.90753 6.09263 9.77052 6.0086 9.6296C5.99034 9.59897 5.97604 9.56816 5.96571 9.53717V7.81842V6.4296L4.57682 6.42953V9.53717C4.57682 9.74566 4.62054 9.94557 4.70796 10.1369C4.8845 10.5233 5.23927 10.8747 5.77226 11.1911C5.9571 11.3008 6.16336 11.4063 6.39106 11.5077Z" fill="#8696AD"/>
<path d="M12.2331 7.38439C11.7817 7.43069 11.3129 7.45384 10.8268 7.45384C10.3407 7.45384 9.86618 7.43069 9.40321 7.38439C8.94025 7.3381 8.50333 7.27155 8.09245 7.18474C7.68157 7.09793 7.29673 6.99088 6.93793 6.86356C6.57914 6.73625 6.25506 6.59164 5.96571 6.4296V7.81842C6.25506 7.98046 6.57914 8.12513 6.93793 8.25245C7.29673 8.37976 7.68157 8.48682 8.09245 8.57363C8.50333 8.66043 8.94025 8.72699 9.40321 8.77328C9.86618 8.81958 10.3407 8.84273 10.8268 8.84273C11.3129 8.84273 11.7817 8.81958 12.2331 8.77328C12.6845 8.72699 13.1156 8.66043 13.5265 8.57363C13.9374 8.48682 14.3251 8.37976 14.6897 8.25245C15.0543 8.12513 15.387 7.98046 15.6879 7.81842V6.42953C15.387 6.59157 15.0543 6.73625 14.6897 6.86356C14.3251 6.99088 13.9374 7.09793 13.5265 7.18474C13.1156 7.27155 12.6845 7.3381 12.2331 7.38439Z" fill="#8696AD"/>
<path d="M10.8268 5.02335C10.2944 5.02335 9.75333 5.06386 9.20356 5.14488C8.65379 5.22589 8.14742 5.33295 7.68446 5.46606C7.2215 5.59916 6.83377 5.74962 6.52127 5.91745C6.20877 6.08527 6.02358 6.25599 5.96571 6.4296C6.25506 6.59164 6.57914 6.73625 6.93793 6.86356C7.29673 6.99088 7.68157 7.09793 8.09245 7.18474C8.50333 7.27155 8.94025 7.3381 9.40321 7.38439C9.86618 7.43069 10.3407 7.45384 10.8268 7.45384C11.3129 7.45384 11.7817 7.43069 12.2331 7.38439C12.6845 7.3381 13.1156 7.27155 13.5265 7.18474C13.9374 7.09793 14.3251 6.99088 14.6897 6.86356C15.0543 6.73625 15.387 6.59157 15.6879 6.42953C15.6301 6.25592 15.4478 6.0708 15.1411 5.90877C14.8343 5.74673 14.4495 5.59916 13.9865 5.46606C13.5236 5.33296 13.0143 5.2259 12.4588 5.14488C11.9032 5.06386 11.3592 5.02335 10.8268 5.02335Z" fill="#8696AD"/>
<path d="M13.0804 10.6964C13.1851 10.6758 13.2881 10.6541 13.3893 10.6313C14.0534 10.9457 14.5193 11.3042 14.7871 11.7002C14.6125 11.7644 14.4328 11.8236 14.2481 11.8777C13.2534 12.1692 12.113 12.3149 10.8268 12.3149C9.07914 12.3149 7.60055 12.0458 6.39106 11.5077C6.16336 11.4063 5.9571 11.3008 5.77226 11.1911C5.35065 10.9408 5.0406 10.6685 4.84204 10.3745C5.16127 10.2569 5.49733 10.1561 5.85019 10.0721L7.18533 11.2679C7.7351 11.1869 8.27619 11.1464 8.80859 11.1464C9.341 11.1464 9.88498 11.1869 10.4405 11.2679C10.9961 11.3489 11.5054 11.456 11.9683 11.5891L13.0804 10.6964Z" fill="#8696AD"/>
<path fill-rule="evenodd" clip-rule="evenodd" d="M15.0586 12.9305C14.908 12.9828 14.755 13.0317 14.5997 13.0772C13.4672 13.409 12.2046 13.5649 10.8269 13.5649C8.95747 13.5649 7.29484 13.2779 5.88292 12.6496C5.61748 12.5315 5.36697 12.404 5.13419 12.2659C4.56068 11.9254 4.04065 11.4868 3.70457 10.913C2.94059 11.384 2.55859 11.9363 2.55859 12.5526V15.6602C2.55859 15.8687 2.60231 16.0686 2.68974 16.26C2.86627 16.6463 3.22104 16.9977 3.75403 17.3141C3.93887 17.4239 4.14513 17.5294 4.37283 17.6307C5.58232 18.1689 7.06091 18.438 8.80859 18.438C10.0948 18.438 11.2352 18.2923 12.2299 18.0008C12.5868 17.8962 12.925 17.7728 13.2444 17.6307C13.3449 17.586 13.4412 17.5404 13.5334 17.4941C14.5502 16.9825 15.0586 16.3712 15.0586 15.6602V12.9305ZM3.94748 15.6602V13.9415C4.23683 14.1035 4.56091 14.2482 4.9197 14.3755C5.2785 14.5028 5.66334 14.6099 6.07422 14.6967C6.4851 14.7835 6.92202 14.85 7.38498 14.8963C7.84795 14.9426 8.32248 14.9658 8.80859 14.9658C9.2947 14.9658 9.76345 14.9426 10.2148 14.8963C10.6662 14.85 11.0974 14.7835 11.5082 14.6967C11.9191 14.6099 12.3069 14.5028 12.6714 14.3755C13.036 14.2482 13.3688 14.1035 13.6697 13.9415V15.6429C13.6118 15.8165 13.4267 15.9872 13.1142 16.155C12.9272 16.2554 12.7134 16.3496 12.4726 16.4375C12.3109 16.4966 12.137 16.5529 11.951 16.6064C11.488 16.7395 10.9816 16.8466 10.4319 16.9276C10.2731 16.951 10.115 16.971 9.95763 16.9876C9.57023 17.0286 9.18721 17.0491 8.80859 17.0491C8.27619 17.0491 7.7322 17.0086 7.17665 16.9276C6.85958 16.8813 6.55758 16.8266 6.27067 16.7634C6.05487 16.7159 5.84761 16.6635 5.64887 16.6064C5.18591 16.4733 4.80107 16.3257 4.49436 16.1637C4.2424 16.0306 4.0744 15.8936 3.99037 15.7526C3.97211 15.722 3.95781 15.6912 3.94748 15.6602Z" fill="#8696AD"/>
<path d="M7.50041 8.0001H9.16707V11.3334H7.50041V8.0001Z" fill="#8696AD"/>
<path d="M12.5004 8.0001H14.1671V11.3334H12.5004V8.0001Z" fill="#8696AD"/>
<path d="M5.83374 13.8334H7.50041V17.1668H5.83374V13.8334Z" fill="#8696AD"/>
<path d="M10.0004 13.8334H11.6671V17.1668H10.0004V13.8334Z" fill="#8696AD"/>
</svg>
