<svg width="20" height="21" viewBox="0 0 20 21" fill="none" xmlns="http://www.w3.org/2000/svg">
<path fill-rule="evenodd" clip-rule="evenodd" d="M7.63985 18.7056C7.39754 18.553 7.25054 18.2867 7.25054 18.0004V16.4715L3.52502 18.0682C3.21185 18.2024 2.84843 18.1324 2.60752 17.8914C2.36651 17.6505 2.2966 17.2871 2.43077 16.9739L4.02743 13.2485H2.4986C2.21218 13.2485 1.94593 13.1014 1.79335 12.859C1.62018 12.5839 1.64226 12.2714 1.77885 11.9894C1.83935 11.8652 1.98452 11.57 2.19585 11.1592C2.47735 10.6121 2.87735 9.85773 3.35118 9.02917C4.28552 7.39536 5.55393 5.38868 6.79641 4.14618C9.43535 1.50726 13.7138 1.50726 16.3527 4.14618C18.9917 6.78511 18.9917 11.0636 16.3527 13.7025C15.1102 14.945 13.1036 16.2134 11.4698 17.1477C10.6412 17.6216 9.88685 18.0215 9.33966 18.3031C8.92891 18.5144 8.63379 18.6596 8.50954 18.7201C8.2306 18.8554 7.9111 18.8763 7.63985 18.7056ZM11.4994 13.5003C13.9847 13.5003 15.9994 11.4856 15.9994 9.0003C15.9994 6.51501 13.9847 4.5003 11.4994 4.5003C9.01413 4.5003 6.99941 6.51501 6.99941 9.0003C6.99941 11.4856 9.01413 13.5003 11.4994 13.5003Z" fill="#8696AD"/>
</svg>
