<svg width="25" height="29" viewBox="0 0 25 29" fill="none" xmlns="http://www.w3.org/2000/svg">
<path fill-rule="evenodd" clip-rule="evenodd" d="M16.18 1.98784L21.414 5.25784C22.3491 5.84224 23.1201 6.65484 23.6547 7.61925C24.1893 8.58365 24.4699 9.66817 24.47 10.7708V18.2278C24.4701 19.3305 24.1896 20.4151 23.655 21.3796C23.1204 22.344 22.3492 23.1566 21.414 23.7408L16.18 27.0108C15.1469 27.6564 13.7182 27.9944 12.5 27.9944C11.2818 27.9944 10.3231 27.6564 9.29 27.0108L4.056 23.7408C3.12094 23.1564 2.34986 22.3438 1.81526 21.3794C1.28067 20.415 1.00012 19.3305 1 18.2278V10.7708C0.999934 9.66814 1.2804 8.58355 1.81501 7.61911C2.34963 6.65467 3.12081 5.8421 4.056 5.25784L9.29 1.98784C10.3231 1.34229 11.5168 1 12.735 1C13.9532 1 15.1469 1.34229 16.18 1.98784ZM16.971 22.8928C16.585 22.4748 15.771 22.6778 15.154 23.3468C14.537 24.0158 14.349 24.8958 14.735 25.3138C15.121 25.7318 15.935 25.5288 16.552 24.8598C17.169 24.1908 17.357 23.3108 16.971 22.8928ZM8.226 16.2468C7.141 15.0648 5.667 14.7508 4.932 15.5448C4.197 16.3388 4.481 17.9398 5.566 19.1218C6.651 20.3038 8.125 20.6178 8.86 19.8238C9.595 19.0298 9.311 17.4288 8.226 16.2468ZM20.089 17.4428C19.703 17.0248 18.889 17.2278 18.272 17.8968C17.655 18.5658 17.467 19.4458 17.853 19.8638C18.239 20.2818 19.053 20.0788 19.67 19.4098C20.287 18.7408 20.475 17.8608 20.089 17.4428ZM22.967 12.5108C22.581 12.0928 21.767 12.2958 21.15 12.9648C20.533 13.6338 20.345 14.5138 20.731 14.9318C21.117 15.3498 21.931 15.1468 22.548 14.4778C23.165 13.8088 23.353 12.9288 22.967 12.5108ZM17.355 5.52784C16.17 5.52784 15.209 6.18584 15.209 6.99784C15.209 7.80984 16.17 8.46784 17.355 8.46784C18.54 8.46784 19.501 7.80984 19.501 6.99784C19.501 6.18584 18.54 5.52784 17.355 5.52784ZM8.216 5.52784C7.031 5.52784 6.07 6.18584 6.07 6.99784C6.07 7.80984 7.031 8.46784 8.216 8.46784C9.401 8.46784 10.362 7.80984 10.362 6.99784C10.362 6.18584 9.401 5.52784 8.216 5.52784Z" fill="#FFC231"/>
<path d="M8.226 16.2468C7.141 15.0648 5.667 14.7508 4.932 15.5448C4.197 16.3388 4.481 17.9398 5.566 19.1218C6.651 20.3038 8.125 20.6178 8.86 19.8238C9.595 19.0298 9.311 17.4288 8.226 16.2468Z" fill="#6D43EC"/>
<path d="M8.216 5.52784C7.031 5.52784 6.07 6.18584 6.07 6.99784C6.07 7.80984 7.031 8.46784 8.216 8.46784C9.401 8.46784 10.362 7.80984 10.362 6.99784C10.362 6.18584 9.401 5.52784 8.216 5.52784Z" fill="#6D43EC"/>
<path d="M17.355 5.52784C16.17 5.52784 15.209 6.18584 15.209 6.99784C15.209 7.80984 16.17 8.46784 17.355 8.46784C18.54 8.46784 19.501 7.80984 19.501 6.99784C19.501 6.18584 18.54 5.52784 17.355 5.52784Z" fill="#6D43EC"/>
<path d="M22.967 12.5108C22.581 12.0928 21.767 12.2958 21.15 12.9648C20.533 13.6338 20.345 14.5138 20.731 14.9318C21.117 15.3498 21.931 15.1468 22.548 14.4778C23.165 13.8088 23.353 12.9288 22.967 12.5108Z" fill="#6D43EC"/>
<path d="M20.089 17.4428C19.703 17.0248 18.889 17.2278 18.272 17.8968C17.655 18.5658 17.467 19.4458 17.853 19.8638C18.239 20.2818 19.053 20.0788 19.67 19.4098C20.287 18.7408 20.475 17.8608 20.089 17.4428Z" fill="#6D43EC"/>
<path d="M16.971 22.8928C16.585 22.4748 15.771 22.6778 15.154 23.3468C14.537 24.0158 14.349 24.8958 14.735 25.3138C15.121 25.7318 15.935 25.5288 16.552 24.8598C17.169 24.1908 17.357 23.3108 16.971 22.8928Z" fill="#6D43EC"/>
<path d="M16.18 1.98784L15.915 2.41186L15.9151 2.41188L16.18 1.98784ZM21.414 5.25784L21.679 4.83383L21.6789 4.83379L21.414 5.25784ZM24.47 10.7708H24.97V10.7708L24.47 10.7708ZM24.47 18.2278H23.97V18.2279L24.47 18.2278ZM21.414 23.7408L21.1491 23.3168L21.1491 23.3168L21.414 23.7408ZM16.18 27.0108L15.9151 26.5868L15.915 26.5868L16.18 27.0108ZM9.29 27.0108L9.55496 26.5868L9.55493 26.5868L9.29 27.0108ZM4.056 23.7408L3.791 24.1648L3.79107 24.1649L4.056 23.7408ZM1 18.2278H0.5V18.2279L1 18.2278ZM1 10.7708H1.5V10.7708L1 10.7708ZM4.056 5.25784L4.32092 5.68188L4.32093 5.68188L4.056 5.25784ZM9.29 1.98784L9.55493 2.41188L9.55496 2.41186L9.29 1.98784ZM12.735 1V0.5V1ZM15.9151 2.41188L21.1491 5.68188L21.6789 4.83379L16.4449 1.56379L15.9151 2.41188ZM21.149 5.68184C22.0122 6.2213 22.7239 6.97142 23.2174 7.86166L24.092 7.37684C23.5163 6.33827 22.686 5.46318 21.679 4.83383L21.149 5.68184ZM23.2174 7.86166C23.7109 8.7519 23.9699 9.75302 23.97 10.7709L24.97 10.7708C24.9699 9.58332 24.6677 8.4154 24.092 7.37684L23.2174 7.86166ZM23.97 10.7708V18.2278H24.97V10.7708H23.97ZM23.97 18.2279C23.9701 19.2457 23.7112 20.2469 23.2177 21.1372L24.0923 21.622C24.668 20.5833 24.9701 19.4153 24.97 18.2278L23.97 18.2279ZM23.2177 21.1372C22.7242 22.0274 22.0123 22.7775 21.1491 23.3168L21.6789 24.1649C22.6861 23.5357 23.5166 22.6606 24.0923 21.622L23.2177 21.1372ZM21.1491 23.3168L15.9151 26.5868L16.4449 27.4349L21.6789 24.1649L21.1491 23.3168ZM15.915 26.5868C14.9761 27.1736 13.6434 27.4944 12.5 27.4944V28.4944C13.793 28.4944 15.3178 28.1392 16.445 27.4349L15.915 26.5868ZM12.5 27.4944C11.3938 27.4944 10.5257 27.1934 9.55496 26.5868L9.02504 27.4349C10.1205 28.1194 11.1698 28.4944 12.5 28.4944V27.4944ZM9.55493 26.5868L4.32093 23.3168L3.79107 24.1649L9.02507 27.4349L9.55493 26.5868ZM4.321 23.3168C3.45784 22.7774 2.74605 22.0273 2.25257 21.137L1.37796 21.6218C1.95366 22.6604 2.78404 23.5355 3.791 24.1648L4.321 23.3168ZM2.25257 21.137C1.75909 20.2468 1.50011 19.2457 1.5 18.2278L0.5 18.2279C0.500131 19.4153 0.802252 20.5833 1.37796 21.6218L2.25257 21.137ZM1.5 18.2278V10.7708H0.5V18.2278H1.5ZM1.5 10.7708C1.49994 9.75293 1.75883 8.75177 2.25232 7.86152L1.37771 7.3767C0.80197 8.41532 0.499929 9.58334 0.5 10.7709L1.5 10.7708ZM2.25232 7.86152C2.74581 6.97127 3.45767 6.2212 4.32092 5.68188L3.79108 4.83379C2.78395 5.46299 1.95344 6.33807 1.37771 7.3767L2.25232 7.86152ZM4.32093 5.68188L9.55493 2.41188L9.02507 1.56379L3.79107 4.83379L4.32093 5.68188ZM9.55496 2.41186C10.5086 1.81596 11.6105 1.5 12.735 1.5V0.5C11.4231 0.5 10.1376 0.868612 9.02504 1.56381L9.55496 2.41186ZM12.735 1.5C13.8595 1.5 14.9614 1.81596 15.915 2.41186L16.445 1.56381C15.3324 0.868612 14.0469 0.5 12.735 0.5V1.5ZM17.3383 22.5536C16.9803 22.1659 16.4663 22.1176 16.028 22.2271C15.587 22.3372 15.1477 22.6161 14.7865 23.0079L15.5216 23.6858C15.7773 23.4085 16.0535 23.2514 16.2703 23.1973C16.4897 23.1425 16.5757 23.2018 16.6037 23.232L17.3383 22.5536ZM14.7865 23.0079C14.4246 23.4002 14.1761 23.8665 14.0794 24.3202C13.9852 24.7618 14.022 25.2788 14.3677 25.653L15.1023 24.9746C15.062 24.9309 14.9998 24.7989 15.0574 24.5287C15.1124 24.2707 15.2664 23.9624 15.5216 23.6858L14.7865 23.0079ZM14.3677 25.653C14.7257 26.0408 15.2397 26.089 15.678 25.9796C16.119 25.8694 16.5583 25.5905 16.9195 25.1988L16.1845 24.5209C15.9287 24.7981 15.6525 24.9552 15.4357 25.0094C15.2163 25.0641 15.1303 25.0049 15.1023 24.9746L14.3677 25.653ZM16.9195 25.1988C17.2814 24.8064 17.5299 24.3402 17.6266 23.8865C17.7208 23.4449 17.684 22.9279 17.3383 22.5536L16.6037 23.232C16.644 23.2758 16.7062 23.4078 16.6486 23.6779C16.5936 23.936 16.4396 24.2442 16.1845 24.5209L16.9195 25.1988ZM8.59434 15.9087C7.9944 15.2551 7.26659 14.8181 6.55195 14.6658C5.83525 14.5131 5.08432 14.6443 4.56508 15.2052L5.29892 15.8845C5.51468 15.6514 5.86825 15.5426 6.34355 15.6439C6.82091 15.7456 7.3726 16.0565 7.85766 16.585L8.59434 15.9087ZM4.56508 15.2052C4.05602 15.7551 3.94265 16.5333 4.07418 17.2751C4.20705 18.0246 4.59691 18.8055 5.19766 19.46L5.93434 18.7837C5.45009 18.2562 5.15545 17.6456 5.05882 17.1006C4.96085 16.5479 5.07298 16.1286 5.29892 15.8845L4.56508 15.2052ZM5.19766 19.46C5.7976 20.1135 6.52541 20.5506 7.24005 20.7029C7.95675 20.8556 8.70768 20.7244 9.22692 20.1635L8.49308 19.4842C8.27732 19.7173 7.92375 19.8261 7.44845 19.7248C6.97109 19.6231 6.4194 19.3121 5.93434 18.7837L5.19766 19.46ZM9.22692 20.1635C9.73598 19.6136 9.84935 18.8354 9.71782 18.0936C9.58495 17.3441 9.19509 16.5632 8.59434 15.9087L7.85766 16.585C8.34191 17.1125 8.63655 17.7231 8.73318 18.2681C8.83115 18.8208 8.71902 19.2401 8.49308 19.4842L9.22692 20.1635ZM20.4563 17.1036C20.0983 16.7159 19.5843 16.6677 19.146 16.7771C18.705 16.8872 18.2657 17.1661 17.9045 17.5579L18.6396 18.2358C18.8953 17.9585 19.1715 17.8014 19.3883 17.7473C19.6077 17.6925 19.6937 17.7518 19.7217 17.782L20.4563 17.1036ZM17.9045 17.5579C17.5426 17.9502 17.2941 18.4165 17.1974 18.8702C17.1032 19.3118 17.14 19.8288 17.4857 20.203L18.2203 19.5246C18.18 19.4809 18.1178 19.3489 18.1754 19.0787C18.2304 18.8207 18.3844 18.5124 18.6396 18.2358L17.9045 17.5579ZM17.4857 20.203C17.8437 20.5908 18.3577 20.639 18.796 20.5296C19.237 20.4194 19.6763 20.1405 20.0375 19.7488L19.3025 19.0709C19.0467 19.3481 18.7705 19.5052 18.5537 19.5594C18.3343 19.6142 18.2483 19.5549 18.2203 19.5246L17.4857 20.203ZM20.0375 19.7488C20.3994 19.3564 20.6479 18.8902 20.7446 18.4365C20.8388 17.9949 20.802 17.4779 20.4563 17.1036L19.7217 17.782C19.762 17.8258 19.8242 17.9578 19.7666 18.228C19.7116 18.486 19.5576 18.7942 19.3025 19.0709L20.0375 19.7488ZM23.3343 12.1716C22.9763 11.7839 22.4623 11.7357 22.024 11.8451C21.583 11.9552 21.1437 12.2341 20.7825 12.6259L21.5176 13.3038C21.7733 13.0265 22.0495 12.8694 22.2663 12.8153C22.4857 12.7605 22.5717 12.8198 22.5997 12.85L23.3343 12.1716ZM20.7825 12.6259C20.4206 13.0182 20.1721 13.4845 20.0754 13.9382C19.9812 14.3798 20.018 14.8968 20.3637 15.271L21.0983 14.5926C21.058 14.5489 20.9958 14.4169 21.0534 14.1467C21.1084 13.8887 21.2624 13.5804 21.5176 13.3038L20.7825 12.6259ZM20.3637 15.271C20.7217 15.6588 21.2357 15.707 21.674 15.5976C22.115 15.4874 22.5543 15.2085 22.9156 14.8168L22.1805 14.1389C21.9247 14.4161 21.6485 14.5732 21.4317 14.6274C21.2123 14.6821 21.1263 14.6229 21.0983 14.5926L20.3637 15.271ZM22.9156 14.8168C23.2774 14.4244 23.5259 13.9582 23.6226 13.5045C23.7168 13.0629 23.68 12.5459 23.3343 12.1716L22.5997 12.85C22.64 12.8938 22.7022 13.0258 22.6446 13.2959C22.5896 13.554 22.4356 13.8622 22.1805 14.1389L22.9156 14.8168ZM17.355 5.02784C16.6748 5.02784 16.0369 5.21583 15.5551 5.54582C15.0756 5.87419 14.709 6.37892 14.709 6.99784H15.709C15.709 6.80475 15.8229 6.57448 16.1202 6.37086C16.4151 6.16884 16.8502 6.02784 17.355 6.02784V5.02784ZM14.709 6.99784C14.709 7.61675 15.0756 8.12148 15.5551 8.44986C16.0369 8.77984 16.6748 8.96784 17.355 8.96784V7.96784C16.8502 7.96784 16.4151 7.82683 16.1202 7.62482C15.8229 7.42119 15.709 7.19092 15.709 6.99784H14.709ZM17.355 8.96784C18.0352 8.96784 18.6731 8.77984 19.1549 8.44986C19.6344 8.12148 20.001 7.61675 20.001 6.99784H19.001C19.001 7.19092 18.8871 7.42119 18.5898 7.62482C18.2949 7.82683 17.8598 7.96784 17.355 7.96784V8.96784ZM20.001 6.99784C20.001 6.37892 19.6344 5.87419 19.1549 5.54582C18.6731 5.21583 18.0352 5.02784 17.355 5.02784V6.02784C17.8598 6.02784 18.2949 6.16884 18.5898 6.37086C18.8871 6.57448 19.001 6.80475 19.001 6.99784H20.001ZM8.216 5.02784C7.53579 5.02784 6.89788 5.21583 6.41609 5.54582C5.93664 5.87419 5.57 6.37892 5.57 6.99784H6.57C6.57 6.80475 6.68386 6.57448 6.98116 6.37086C7.27612 6.16884 7.71121 6.02784 8.216 6.02784V5.02784ZM5.57 6.99784C5.57 7.61675 5.93664 8.12148 6.41609 8.44986C6.89788 8.77984 7.53579 8.96784 8.216 8.96784V7.96784C7.71121 7.96784 7.27612 7.82683 6.98116 7.62482C6.68386 7.42119 6.57 7.19092 6.57 6.99784H5.57ZM8.216 8.96784C8.89621 8.96784 9.53412 8.77984 10.0159 8.44986C10.4954 8.12148 10.862 7.61675 10.862 6.99784H9.862C9.862 7.19092 9.74814 7.42119 9.45084 7.62482C9.15588 7.82683 8.72079 7.96784 8.216 7.96784V8.96784ZM10.862 6.99784C10.862 6.37892 10.4954 5.87419 10.0159 5.54582C9.53412 5.21583 8.89621 5.02784 8.216 5.02784V6.02784C8.72079 6.02784 9.15588 6.16884 9.45084 6.37086C9.74814 6.57448 9.862 6.80475 9.862 6.99784H10.862ZM12.9158 27.7167C12.5052 27.1019 12.344 26.1263 12.3635 24.8682C12.3827 23.628 12.5734 22.2135 12.7781 20.7874C12.9804 19.3772 13.1977 17.9485 13.2519 16.7339C13.2791 16.1246 13.2666 15.5488 13.1848 15.0412C13.1036 14.5372 12.9483 14.0632 12.661 13.6905L11.869 14.301C12.0155 14.4911 12.1303 14.783 12.1976 15.2003C12.2643 15.614 12.2786 16.1147 12.2529 16.6893C12.2014 17.8426 11.9939 19.2115 11.7882 20.6453C11.5847 22.0631 11.3839 23.5391 11.3636 24.8527C11.3435 26.1483 11.4948 27.3897 12.0842 28.2721L12.9158 27.7167ZM12.3145 14.4933C15.0316 14.2228 16.8142 12.8876 18.4541 11.518C20.1088 10.1361 21.5904 8.75313 23.7969 8.0986L23.5125 7.13989C21.0643 7.86612 19.4101 9.41665 17.8131 10.7504C16.2013 12.0965 14.6164 13.2592 12.2155 13.4982L12.3145 14.4933ZM12.5912 13.6168C10.7985 12.074 8.27154 11.043 6.20703 10.1311C5.15556 9.66663 4.22811 9.23619 3.52287 8.78247C2.80458 8.32036 2.41445 7.89423 2.29552 7.48087L1.3345 7.75735C1.55807 8.53444 2.21481 9.13 2.98182 9.62346C3.76189 10.1253 4.7582 10.5843 5.80298 11.0458C7.93096 11.9858 10.2865 12.9527 11.9388 14.3747L12.5912 13.6168Z" fill="#371699"/>
</svg>
