<svg width="20" height="21" viewBox="0 0 20 21" fill="none" xmlns="http://www.w3.org/2000/svg">
<path fill-rule="evenodd" clip-rule="evenodd" d="M11.5967 11.0877C11.5967 10.5085 11.3663 9.9524 10.9563 9.54323C10.5472 9.13329 9.99108 8.90287 9.41193 8.90287H3.85077C3.27082 8.90287 2.71549 9.13329 2.30555 9.54323C1.89641 9.9524 1.66602 10.5085 1.66602 11.0877V16.6489C1.66602 17.2289 1.89641 17.7842 2.30555 18.1941C2.71549 18.6032 3.27082 18.8337 3.85077 18.8337H9.41193C9.99108 18.8337 10.5472 18.6032 10.9563 18.1941C11.3663 17.7842 11.5967 17.2289 11.5967 16.6489V11.0877ZM7.42581 13.8683C7.42581 14.3071 7.0701 14.6627 6.63138 14.6627C6.19259 14.6627 5.8369 14.3071 5.8369 13.8683C5.8369 13.4295 6.19259 13.0738 6.63138 13.0738C7.0701 13.0738 7.42581 13.4295 7.42581 13.8683ZM9.41115 11.882C9.41115 12.3208 9.05549 12.6765 8.61672 12.6765C8.17794 12.6765 7.82228 12.3208 7.82228 11.882C7.82228 11.4433 8.17794 11.0876 8.61672 11.0876C9.05549 11.0876 9.41115 11.4433 9.41115 11.882ZM8.61672 15.0598C9.05526 15.0598 9.41115 15.4157 9.41115 15.8542C9.41115 16.2928 9.05526 16.6487 8.61672 16.6487C8.17818 16.6487 7.82228 16.2928 7.82228 15.8542C7.82228 15.4157 8.17818 15.0598 8.61672 15.0598ZM5.44045 15.8542C5.44045 16.293 5.08476 16.6487 4.646 16.6487C4.20723 16.6487 3.85154 16.293 3.85154 15.8542C3.85154 15.4155 4.20723 15.0598 4.646 15.0598C5.08476 15.0598 5.44045 15.4155 5.44045 15.8542ZM4.646 11.0876C5.08454 11.0876 5.44045 11.4435 5.44045 11.882C5.44045 12.3206 5.08454 12.6765 4.646 12.6765C4.20746 12.6765 3.85154 12.3206 3.85154 11.882C3.85154 11.4435 4.20746 11.0876 4.646 11.0876Z" fill="#8696AD"/>
<path fill-rule="evenodd" clip-rule="evenodd" d="M15.1951 13.4447C15.7194 13.1976 16.1238 12.7528 16.32 12.2077C16.8547 10.7229 17.669 8.45944 18.2037 6.9746C18.3999 6.42962 18.3713 5.82901 18.1242 5.30466C17.878 4.78032 17.4331 4.37593 16.8873 4.1797C15.4032 3.64503 13.1399 2.83065 11.655 2.29598C11.11 2.09975 10.5086 2.12835 9.98507 2.37543C9.46073 2.62171 9.05556 3.06661 8.85935 3.6124L7.65968 6.94594C7.5485 7.255 7.70896 7.5966 8.0188 7.70785C8.09315 7.73461 8.16939 7.74565 8.24385 7.74267H10.6063C11.0421 7.74267 11.4649 7.87313 11.8218 8.11238C11.7819 7.96201 11.7858 7.79847 11.8424 7.64117C11.991 7.22807 12.4462 7.01357 12.8585 7.16211C13.2717 7.31072 13.4862 7.76672 13.3376 8.17904C13.1986 8.56492 12.7903 8.77754 12.4005 8.68147C12.653 9.04468 12.791 9.47916 12.791 9.92745V12.7841C12.7881 12.8157 12.7877 12.8472 12.7898 12.8783C12.805 13.1076 12.9531 13.3175 13.1828 13.4001C13.3003 13.443 13.4147 13.4836 13.5251 13.5233C14.0702 13.7195 14.6708 13.691 15.1951 13.4447ZM14.0548 9.70351C14.4672 9.85206 14.6817 10.3073 14.5331 10.7204C14.3854 11.1327 13.9294 11.3472 13.517 11.1987C13.1047 11.0501 12.8902 10.5949 13.0388 10.1817C13.1865 9.76941 13.6425 9.55491 14.0548 9.70351ZM11.663 4.62045C12.0753 4.76901 12.2898 5.22503 12.1412 5.63735C11.9927 6.04968 11.5375 6.26418 11.1244 6.11562C10.7121 5.96706 10.4976 5.51183 10.6461 5.09951C10.7946 4.68638 11.2499 4.47268 11.663 4.62045ZM14.9545 5.86913C15.393 5.86913 15.7489 6.22503 15.7489 6.66357C15.7489 7.10211 15.393 7.45801 14.9545 7.45801C14.5159 7.45801 14.1601 7.10211 14.1601 6.66357C14.1601 6.22503 14.5159 5.86913 14.9545 5.86913Z" fill="#8696AD"/>
</svg>
