<svg width="20" height="21" viewBox="0 0 20 21" fill="none" xmlns="http://www.w3.org/2000/svg">
<path d="M13.4903 15.1698C13.1895 14.869 13.1895 14.3813 13.4903 14.0805L13.5739 13.9968C13.8778 13.693 14.3705 13.693 14.6744 13.9968L15.2662 14.5886L15.3026 14.6251C15.6281 14.9506 15.6281 15.4782 15.3026 15.8036C14.9772 16.1291 14.4496 16.1291 14.1241 15.8036L14.0877 15.7672L13.4903 15.1698Z" fill="#8696AD"/>
<path d="M14.1241 5.19702C14.4496 4.87159 14.9772 4.87159 15.3026 5.19702C15.6281 5.52246 15.6281 6.0501 15.3026 6.37554L15.2662 6.41201L14.6912 6.987C14.378 7.30017 13.8703 7.30017 13.5571 6.987L13.5127 6.94259C13.1995 6.62941 13.1995 6.12166 13.5127 5.80849L14.0877 5.2335L14.1241 5.19702Z" fill="#8696AD"/>
<path d="M5.34664 13.9745C5.6382 13.683 6.11092 13.683 6.40248 13.9745L6.52515 14.0972C6.81671 14.3888 6.81671 14.8615 6.52515 15.153L5.91103 15.7672L5.87456 15.8036C5.54912 16.1291 5.02149 16.1291 4.69605 15.8036C4.37061 15.4782 4.37061 14.9506 4.69605 14.6251L4.73252 14.5886L5.34664 13.9745Z" fill="#8696AD"/>
<path fill-rule="evenodd" clip-rule="evenodd" d="M15.8919 16.3929C19.1463 13.1385 19.1463 7.86214 15.8919 4.60777C12.6375 1.3534 7.36116 1.3534 4.10679 4.60777C0.852423 7.86214 0.852423 13.1385 4.10679 16.3929C7.36116 19.6473 12.6375 19.6473 15.8919 16.3929ZM12.9456 13.4466C14.5728 11.8194 14.5728 9.18123 12.9456 7.55405C11.3184 5.92686 8.68025 5.92686 7.05307 7.55405C5.42589 9.18123 5.42589 11.8194 7.05307 13.4466C8.68025 15.0738 11.3184 15.0738 12.9456 13.4466ZM4.73252 6.41201C2.86607 8.81026 2.86607 12.1904 4.73252 14.5886L5.34664 13.9745C3.80415 11.9171 3.79858 9.07251 5.32992 7.00941L4.73252 6.41201ZM5.91103 5.2335C8.30928 3.36705 11.6894 3.36705 14.0877 5.2335L13.5127 5.80849C11.4404 4.25482 8.56939 4.26043 6.50284 5.8253L5.91103 5.2335ZM5.91103 15.7672C8.30928 17.6336 11.6894 17.6336 14.0877 15.7672L13.4903 15.1698C11.4272 16.7011 8.58256 16.6955 6.52515 15.153L5.91103 15.7672ZM15.2662 6.41201C17.1326 8.81026 17.1326 12.1904 15.2662 14.5886L14.6744 13.9968C16.2392 11.9303 16.2449 9.05932 14.6912 6.987L15.2662 6.41201Z" fill="#8696AD"/>
<path d="M10.8327 10.5003C10.8327 10.9606 10.4596 11.3337 9.99935 11.3337C9.53911 11.3337 9.16602 10.9606 9.16602 10.5003C9.16602 10.0401 9.53911 9.66699 9.99935 9.66699C10.4596 9.66699 10.8327 10.0401 10.8327 10.5003Z" fill="#8696AD"/>
</svg>
