<svg width="20" height="21" viewBox="0 0 20 21" fill="none" xmlns="http://www.w3.org/2000/svg">
<path fill-rule="evenodd" clip-rule="evenodd" d="M13.7462 16.3615C13.7218 16.3754 13.6973 16.3887 13.6727 16.4012L13.6742 7.26956C13.6796 6.36938 13.3265 5.56797 12.6931 4.95459C12.0703 4.35142 11.2813 4.02345 10.4088 4.01638L10.401 4.01631L10.3932 4.01632L7.75195 4.01921L7.94287 3.31234C8.05557 2.90555 8.30078 2.59422 8.67852 2.37834C9.05626 2.16246 9.45275 2.11196 9.86798 2.22684L15.9513 3.84974C16.3666 3.96461 16.686 4.20872 16.9096 4.58206C17.1332 4.9554 17.1887 5.34546 17.076 5.75226L14.4819 15.4275C14.3692 15.8342 14.124 16.1456 13.7462 16.3615Z" fill="#8696AD"/>
<path fill-rule="evenodd" clip-rule="evenodd" d="M4.09724 18.8333C3.66642 18.8298 3.29163 18.6756 2.97286 18.3707C2.65409 18.0657 2.49649 17.7022 2.50006 17.2801L2.5201 7.26979C2.52366 6.84769 2.67994 6.4835 2.98894 6.17721C3.29794 5.87092 3.66784 5.71952 4.09866 5.72302L10.3948 5.71613C10.8256 5.71962 11.1973 5.87274 11.5099 6.17548C11.8225 6.47822 11.977 6.84065 11.9735 7.26274L11.9719 17.2797C11.9683 17.7018 11.8121 18.066 11.5031 18.3722C11.1941 18.6785 10.8242 18.8299 10.3933 18.8264L4.09724 18.8333ZM9.65645 11.2693C9.74375 11.1659 9.7874 11.0452 9.7874 10.9073C9.7874 10.8383 9.77601 10.7737 9.75324 10.7133C9.73047 10.653 9.69631 10.5969 9.65076 10.5452L7.5556 8.16591C7.51005 8.11419 7.46071 8.07755 7.40757 8.056C7.35443 8.03445 7.2975 8.02367 7.23677 8.02367C7.17604 8.02367 7.11911 8.03445 7.06597 8.056C7.01283 8.07755 6.96349 8.11419 6.91794 8.16591L4.82278 10.5452C4.77723 10.5969 4.74307 10.653 4.7203 10.7133C4.69752 10.7737 4.68614 10.8383 4.68614 10.9073C4.68614 11.0452 4.72979 11.1659 4.81709 11.2693C4.90438 11.3728 5.01635 11.4245 5.15299 11.4245H9.32054C9.45719 11.4245 9.56916 11.3728 9.65645 11.2693ZM9.75324 13.8361C9.77602 13.7758 9.7874 13.7111 9.7874 13.6422C9.7874 13.5042 9.74375 13.3836 9.65645 13.2801C9.56916 13.1767 9.45719 13.1249 9.32055 13.1249H5.15299C5.01635 13.1249 4.90438 13.1767 4.81709 13.2801C4.72979 13.3836 4.68614 13.5042 4.68614 13.6422C4.68614 13.7111 4.69752 13.7758 4.7203 13.8361C4.74307 13.8965 4.77723 13.9525 4.82278 14.0042L6.91794 16.3835C6.96349 16.4353 7.01283 16.4719 7.06597 16.4935C7.11911 16.515 7.17604 16.5258 7.23677 16.5258C7.2975 16.5258 7.35443 16.515 7.40757 16.4935C7.46071 16.4719 7.51005 16.4353 7.5556 16.3835L9.65076 14.0042C9.69631 13.9525 9.73047 13.8965 9.75324 13.8361Z" fill="#8696AD"/>
</svg>
