<svg width="20" height="21" viewBox="0 0 20 21" fill="none" xmlns="http://www.w3.org/2000/svg">
<path d="M14.7298 10.0837C14.2715 10.0837 13.8791 9.92046 13.5527 9.59408C13.2263 9.26769 13.0632 8.87533 13.0632 8.41699V6.33366C13.0632 5.87533 13.2263 5.48296 13.5527 5.15658C13.8791 4.83019 14.2715 4.66699 14.7298 4.66699H15.834C16.2923 4.66699 16.6847 4.83019 17.0111 5.15658C17.3375 5.48296 17.5007 5.87533 17.5007 6.33366V8.41699C17.5007 8.87533 17.3375 9.26769 17.0111 9.59408C16.6847 9.92046 16.2923 10.0837 15.834 10.0837H14.7298ZM9.45898 10.0837C9.00065 10.0837 8.60829 9.92046 8.2819 9.59408C7.95551 9.26769 7.79232 8.87533 7.79232 8.41699V6.33366C7.79232 5.87533 7.95551 5.48296 8.2819 5.15658C8.60829 4.83019 9.00065 4.66699 9.45898 4.66699H10.5632C11.0215 4.66699 11.4138 4.83019 11.7402 5.15658C12.0666 5.48296 12.2298 5.87533 12.2298 6.33366V8.41699C12.2298 8.87533 12.0666 9.26769 11.7402 9.59408C11.4138 9.92046 11.0215 10.0837 10.5632 10.0837H9.45898ZM4.18815 10.0837C3.72982 10.0837 3.33746 9.92046 3.01107 9.59408C2.68468 9.26769 2.52148 8.87533 2.52148 8.41699V6.33366C2.52148 5.87533 2.68468 5.48296 3.01107 5.15658C3.33746 4.83019 3.72982 4.66699 4.18815 4.66699H5.29232C5.75065 4.66699 6.14301 4.83019 6.4694 5.15658C6.79579 5.48296 6.95898 5.87533 6.95898 6.33366V8.41699C6.95898 8.87533 6.79579 9.26769 6.4694 9.59408C6.14301 9.92046 5.75065 10.0837 5.29232 10.0837H4.18815ZM4.18815 16.3337C3.72982 16.3337 3.33746 16.1705 3.01107 15.8441C2.68468 15.5177 2.52148 15.1253 2.52148 14.667V12.5837C2.52148 12.1253 2.68468 11.733 3.01107 11.4066C3.33746 11.0802 3.72982 10.917 4.18815 10.917H5.29232C5.75065 10.917 6.14301 11.0802 6.4694 11.4066C6.79579 11.733 6.95898 12.1253 6.95898 12.5837V14.667C6.95898 15.1253 6.79579 15.5177 6.4694 15.8441C6.14301 16.1705 5.75065 16.3337 5.29232 16.3337H4.18815ZM9.45898 16.3337C9.00065 16.3337 8.60829 16.1705 8.2819 15.8441C7.95551 15.5177 7.79232 15.1253 7.79232 14.667V12.5837C7.79232 12.1253 7.95551 11.733 8.2819 11.4066C8.60829 11.0802 9.00065 10.917 9.45898 10.917H10.5632C11.0215 10.917 11.4138 11.0802 11.7402 11.4066C12.0666 11.733 12.2298 12.1253 12.2298 12.5837V14.667C12.2298 15.1253 12.0666 15.5177 11.7402 15.8441C11.4138 16.1705 11.0215 16.3337 10.5632 16.3337H9.45898ZM14.7298 16.3337C14.2715 16.3337 13.8791 16.1705 13.5527 15.8441C13.2263 15.5177 13.0632 15.1253 13.0632 14.667V12.5837C13.0632 12.1253 13.2263 11.733 13.5527 11.4066C13.8791 11.0802 14.2715 10.917 14.7298 10.917H15.834C16.2923 10.917 16.6847 11.0802 17.0111 11.4066C17.3375 11.733 17.5007 12.1253 17.5007 12.5837V14.667C17.5007 15.1253 17.3375 15.5177 17.0111 15.8441C16.6847 16.1705 16.2923 16.3337 15.834 16.3337H14.7298Z" fill="#8696AD"/>
</svg>
