<svg width="20" height="21" viewBox="0 0 20 21" fill="none" xmlns="http://www.w3.org/2000/svg">
<g clip-path="url(#clip0_812_28513)">
<mask id="mask0_812_28513" style="mask-type:alpha" maskUnits="userSpaceOnUse" x="0" y="0" width="20" height="21">
<rect y="0.5" width="20" height="20" fill="#D9D9D9"/>
</mask>
<g mask="url(#mask0_812_28513)">
<path d="M4.47982 18.3752C4.20204 18.4863 3.94162 18.4586 3.69857 18.2919C3.45551 18.1252 3.33398 17.8961 3.33398 17.6044V13.8961C3.33398 13.6183 3.39996 13.3544 3.5319 13.1044C3.66385 12.8544 3.84787 12.653 4.08398 12.5002L5.00065 11.8961C5.09787 13.0211 5.24718 13.9933 5.44857 14.8127C5.64996 15.6322 5.97982 16.5627 6.43815 17.6044L4.47982 18.3752ZM8.16732 17.1669C7.97287 17.1669 7.80621 17.1044 7.66732 16.9794C7.52843 16.8544 7.42426 16.7016 7.35482 16.5211C6.97982 15.5627 6.70204 14.6773 6.52148 13.8648C6.34093 13.0523 6.25065 12.1183 6.25065 11.0627C6.25065 9.50717 6.52843 8.02453 7.08398 6.61481C7.63954 5.20509 8.39648 4.06272 9.35482 3.18772C9.43815 3.10439 9.53885 3.04536 9.6569 3.01064C9.77496 2.97592 9.88954 2.95856 10.0007 2.95856C10.1118 2.95856 10.2263 2.97592 10.3444 3.01064C10.4625 3.04536 10.5632 3.10439 10.6465 3.18772C11.6048 4.06272 12.3618 5.20509 12.9173 6.61481C13.4729 8.02453 13.7507 9.50717 13.7507 11.0627C13.7507 12.1322 13.6604 13.0697 13.4798 13.8752C13.2993 14.6808 13.0215 15.5627 12.6465 16.5211C12.577 16.7016 12.4729 16.8544 12.334 16.9794C12.1951 17.1044 12.0284 17.1669 11.834 17.1669H8.16732ZM10.0007 11.3336C10.459 11.3336 10.8513 11.1704 11.1777 10.844C11.5041 10.5176 11.6673 10.1252 11.6673 9.66689C11.6673 9.20856 11.5041 8.8162 11.1777 8.48981C10.8513 8.16342 10.459 8.00022 10.0007 8.00022C9.54232 8.00022 9.14996 8.16342 8.82357 8.48981C8.49718 8.8162 8.33398 9.20856 8.33398 9.66689C8.33398 10.1252 8.49718 10.5176 8.82357 10.844C9.14996 11.1704 9.54232 11.3336 10.0007 11.3336ZM15.5215 18.3752L13.5632 17.6044C14.0215 16.5627 14.3513 15.6322 14.5527 14.8127C14.7541 13.9933 14.9034 13.0211 15.0007 11.8961L15.9173 12.5002C16.1534 12.653 16.3375 12.8544 16.4694 13.1044C16.6013 13.3544 16.6673 13.6183 16.6673 13.8961V17.6044C16.6673 17.8961 16.5458 18.1252 16.3027 18.2919C16.0597 18.4586 15.7993 18.4863 15.5215 18.3752Z" fill="#8696AD"/>
</g>
</g>
<defs>
<clipPath id="clip0_812_28513">
<rect width="20" height="20" fill="white" transform="translate(0 0.5)"/>
</clipPath>
</defs>
</svg>
