<svg width="20" height="21" viewBox="0 0 20 21" fill="none" xmlns="http://www.w3.org/2000/svg">
<path d="M18.1504 4.48236L17.2703 3.56774C16.5423 2.81084 15.3573 2.81126 14.6298 3.56774L13.4579 4.78628L12.5776 3.87147C12.3345 3.61884 11.9406 3.61884 11.6975 3.87147L10.8943 4.75118C10.0853 4.39547 9.20761 4.20843 8.30154 4.20843C6.52616 4.20843 4.85916 4.9249 3.60732 6.22587C1.01891 8.9158 1.01891 13.2928 3.60732 15.9827C4.8592 17.2837 6.52616 18.0001 8.30154 18.0001C10.0769 18.0001 11.7441 17.2837 12.996 15.9827C14.2479 14.6817 14.9372 12.9494 14.9372 11.1044C14.9372 10.1627 14.7573 9.25064 14.415 8.40995L15.2183 7.53025C15.4614 7.27782 15.4614 6.8681 15.2183 6.61563L14.338 5.70082L15.5099 4.48229C15.7524 4.23024 16.1473 4.22985 16.3902 4.48229L17.2703 5.3969C17.3918 5.52323 17.5511 5.58642 17.7103 5.58642C17.8695 5.58642 18.0288 5.52323 18.1503 5.3969C18.3935 5.14451 18.3934 4.73476 18.1504 4.48236ZM12.1158 15.0681C11.099 16.1247 9.74447 16.7066 8.30154 16.7066C6.85861 16.7066 5.50426 16.1246 4.48742 15.0681C2.38441 12.8825 2.38441 9.3262 4.48742 7.14051C5.50426 6.08397 6.85861 5.50205 8.30154 5.50205C9.14331 5.50205 9.95484 5.70044 10.687 6.07525C10.7046 6.08707 10.7227 6.09845 10.7416 6.10841C11.1884 6.34403 11.5963 6.63779 11.9573 6.98275C11.9622 6.9874 11.967 6.99218 11.9718 6.99683C12.0207 7.04381 12.0687 7.09166 12.1158 7.14051C12.1628 7.18947 12.2088 7.23943 12.2541 7.2902C12.2586 7.29516 12.2631 7.30024 12.2676 7.30526C12.5996 7.68039 12.8823 8.10443 13.1089 8.56869C13.1185 8.5884 13.1295 8.60706 13.1408 8.62547C13.5015 9.38633 13.6924 10.2297 13.6924 11.1045C13.6925 12.6039 13.1325 14.0114 12.1158 15.0681ZM13.7937 7.22648C13.5899 6.91569 13.3605 6.62013 13.1061 6.34322C13.0699 6.30366 13.0331 6.26454 12.9959 6.22587C12.9587 6.18725 12.9211 6.14909 12.883 6.11135C12.6166 5.84703 12.3322 5.60867 12.0331 5.39683L12.5107 4.90053L14.2713 6.73019L13.7937 7.22648Z" fill="#8696AD"/>
<path fill-rule="evenodd" clip-rule="evenodd" d="M12.1158 15.0681C11.099 16.1247 9.74447 16.7066 8.30154 16.7066C6.85861 16.7066 5.50426 16.1246 4.48742 15.0681C2.38441 12.8825 2.38441 9.3262 4.48742 7.14051C5.50426 6.08397 6.85861 5.50205 8.30154 5.50205C9.14331 5.50205 9.95484 5.70044 10.687 6.07525C10.7046 6.08707 10.7227 6.09845 10.7416 6.10841C11.1884 6.34403 11.5963 6.63779 11.9573 6.98275L11.9718 6.99683C12.0207 7.04381 12.0687 7.09166 12.1158 7.14051C12.1628 7.18947 12.2088 7.23943 12.2541 7.2902L12.2676 7.30526C12.5996 7.68039 12.8823 8.10443 13.1089 8.56869C13.1185 8.5884 13.1295 8.60706 13.1408 8.62547C13.5015 9.38633 13.6924 10.2297 13.6924 11.1045C13.6925 12.6039 13.1325 14.0114 12.1158 15.0681ZM10.3567 13.2343C10.5998 12.9816 10.9937 12.9816 11.2369 13.2343C11.4799 13.4867 11.4799 13.8964 11.2368 14.1488C10.4525 14.9641 9.41094 15.413 8.30392 15.413C7.19693 15.413 6.15538 14.9641 5.37112 14.1488C5.12803 13.8964 5.12803 13.4867 5.37112 13.2343C5.61426 12.9816 6.00813 12.9816 6.25122 13.2343C6.80052 13.805 7.52964 14.1193 8.30398 14.1193C9.0783 14.1193 9.80752 13.805 10.3567 13.2343Z" fill="#8696AD"/>
<path d="M13.7937 7.22648C13.5899 6.91569 13.3605 6.62013 13.1061 6.34322C13.0699 6.30366 13.0331 6.26454 12.9959 6.22587C12.9587 6.18725 12.9211 6.14909 12.883 6.11135C12.6166 5.84703 12.3322 5.60867 12.0331 5.39683L12.5107 4.90053L14.2713 6.73019L13.7937 7.22648Z" fill="#8696AD"/>
</svg>
