<svg width="20" height="21" viewBox="0 0 20 21" fill="none" xmlns="http://www.w3.org/2000/svg">
<path d="M5.83268 12.167V18.0003C5.83268 18.2364 5.75282 18.4344 5.5931 18.5941C5.43338 18.7538 5.23546 18.8337 4.99935 18.8337C4.76324 18.8337 4.56532 18.7538 4.4056 18.5941C4.24588 18.4344 4.16602 18.2364 4.16602 18.0003V3.00033C4.16602 2.76421 4.24588 2.5663 4.4056 2.40658C4.56532 2.24685 4.76324 2.16699 4.99935 2.16699C5.23546 2.16699 5.43338 2.24685 5.5931 2.40658C5.75282 2.5663 5.83268 2.76421 5.83268 3.00033V3.83366H16.2702C16.5618 3.83366 16.791 3.95519 16.9577 4.19824C17.1243 4.4413 17.1521 4.70171 17.041 4.97949L15.8327 8.00033L17.041 11.0212C17.1521 11.2989 17.1243 11.5594 16.9577 11.8024C16.791 12.0455 16.5618 12.167 16.2702 12.167H5.83268ZM10.416 9.66699C10.8743 9.66699 11.2667 9.5038 11.5931 9.17741C11.9195 8.85102 12.0827 8.45866 12.0827 8.00033C12.0827 7.54199 11.9195 7.14963 11.5931 6.82324C11.2667 6.49685 10.8743 6.33366 10.416 6.33366C9.95768 6.33366 9.56532 6.49685 9.23893 6.82324C8.91254 7.14963 8.74935 7.54199 8.74935 8.00033C8.74935 8.45866 8.91254 8.85102 9.23893 9.17741C9.56532 9.5038 9.95768 9.66699 10.416 9.66699Z" fill="#8696AD"/>
</svg>
