<svg width="20" height="21" viewBox="0 0 20 21" fill="none" xmlns="http://www.w3.org/2000/svg">
<path fill-rule="evenodd" clip-rule="evenodd" d="M9.99935 18.8337C14.5944 18.8337 18.3327 15.0954 18.3327 10.5003C18.3327 5.90529 14.5944 2.16699 9.99935 2.16699C5.40432 2.16699 1.66602 5.90529 1.66602 10.5003C1.66602 15.0954 5.40432 18.8337 9.99935 18.8337ZM4.61904 9.25023L5.23261 8.18748L4.6215 7.8347C4.16344 7.57023 3.98481 7.02205 4.2225 6.61034C4.46019 6.19867 5.02422 6.0793 5.48228 6.34375L6.09339 6.69661L6.70699 5.6338C6.94467 5.22212 7.50872 5.10274 7.96679 5.3672C8.42486 5.63166 8.60345 6.17981 8.36577 6.59148L7.75221 7.6543L8.36333 8.00716C8.8214 8.27163 9.00007 8.81974 8.76232 9.23145C8.52464 9.64316 7.96058 9.76251 7.5026 9.49804L6.8914 9.14518L6.27783 10.2079C6.04014 10.6196 5.4761 10.739 5.01805 10.4745C4.55999 10.21 4.38135 9.66194 4.61904 9.25023ZM5.11987 13.923C5.52669 13.923 5.85647 13.5932 5.85647 13.1864C5.85647 12.7795 5.52669 12.4498 5.11987 12.4498C4.71306 12.4498 4.38327 12.7795 4.38327 13.1864C4.38327 13.5932 4.71306 13.923 5.11987 13.923ZM13.4368 5.06279C13.653 5.63327 13.3659 6.27099 12.7954 6.48722C12.2249 6.70336 11.5872 6.41627 11.371 5.84579C11.1547 5.27532 11.4419 4.6376 12.0124 4.4214C12.5828 4.20519 13.2205 4.49231 13.4368 5.06279Z" fill="#8696AD"/>
</svg>
