<svg width="20" height="21" viewBox="0 0 20 21" fill="none" xmlns="http://www.w3.org/2000/svg">
<path d="M18.2147 13.2962V13.2892C16.7727 14.7519 13.308 15.5272 10.0006 15.5272C7.32776 15.5272 4.55185 15.0203 2.82226 14.0539C2.81018 14.0472 2.79693 14.0407 2.78499 14.0338C2.69743 13.9841 2.61582 13.9319 2.53418 13.8797C2.52974 13.8768 2.5253 13.874 2.52086 13.8712C2.47851 13.8437 2.43313 13.8172 2.39244 13.7894C2.3483 13.7592 2.30914 13.7273 2.26692 13.6966C2.08915 13.5659 1.92565 13.4308 1.78704 13.2892V13.2939C1.78538 13.2922 1.78333 13.2907 1.7818 13.2892V13.7474C1.7818 15.4439 5.46884 16.8256 10.0006 16.8256C14.53 16.8256 18.2146 15.4439 18.2146 13.7474V13.4811L18.2183 13.2927L18.2147 13.2962Z" fill="#8696AD"/>
<path fill-rule="evenodd" clip-rule="evenodd" d="M11.5327 7.62769C11.5303 7.71554 11.5234 7.80366 11.5142 7.89624C11.495 8.07974 11.4624 8.25646 11.4178 8.42635C11.416 8.43234 11.4146 8.43868 11.4131 8.44501C11.4116 8.45185 11.4101 8.45868 11.4081 8.46502C11.4081 8.46502 11.4081 8.4686 11.4077 8.47023C11.6437 8.48866 11.8753 8.51183 12.1067 8.54194C12.1067 8.54194 12.1995 8.55477 12.2559 8.56307C12.2654 8.56522 12.2751 8.5675 12.2822 8.56978L12.2062 8.6368L11.8289 8.9702L11.7179 9.06737C11.5513 9.04422 11.3776 9.02563 11.2018 9.0118C11.1928 9.03416 11.1817 9.05428 11.1705 9.07452L11.1693 9.07664C11.1543 9.10803 11.1361 9.13815 11.1178 9.16835L11.109 9.18283C11.105 9.18867 11.1015 9.19502 11.0979 9.20137C11.093 9.21022 11.0881 9.21905 11.0818 9.22645L11.0841 9.22671L11.0828 9.22905L11.0813 9.23166C13.1412 9.40295 14.7243 10.0579 14.7243 10.8125C14.7243 11.6942 12.5603 12.4396 10.0005 12.4396C7.43828 12.4396 5.27435 11.6942 5.27435 10.8125C5.27435 10.1374 6.54297 9.54305 8.28516 9.30262C8.48822 9.27528 8.69665 9.25164 8.91292 9.23446L8.91165 9.23218L8.91725 9.23166C8.88483 9.18068 8.85482 9.12967 8.82695 9.07664C8.73909 8.91226 8.66966 8.74097 8.61868 8.5674C8.5223 8.25291 8.47845 7.93413 8.4665 7.63533L8.46637 7.63293L8.46598 7.62772C4.60078 7.90311 1.66829 9.20607 1.66829 10.7662H1.66602V11.7544C1.66602 11.8025 1.66881 11.8504 1.67436 11.8981C1.68964 12.0294 1.72576 12.1588 1.78171 12.2844C1.92682 12.6164 2.20641 12.9311 2.59779 13.2203C3.24834 13.7044 4.20837 14.1114 5.37145 14.4083L5.401 14.416C5.42388 14.422 5.44669 14.428 5.46999 14.4338C5.48016 14.4364 5.4905 14.4388 5.50083 14.4412L5.52174 14.4462C6.81621 14.7638 8.35286 14.9484 10.0005 14.9484C11.7868 14.9484 13.4424 14.7317 14.7999 14.3636L14.8067 14.3618L14.8187 14.3586C14.8543 14.3489 14.8892 14.3389 14.9242 14.3288L14.9592 14.3188C15.8774 14.0587 16.6531 13.727 17.2274 13.3419C17.2775 13.3084 17.3253 13.2744 17.3724 13.2402C17.3784 13.2358 17.3847 13.2316 17.3906 13.2273C17.7856 12.937 18.0681 12.6207 18.2146 12.2868C18.2706 12.1595 18.3066 12.0297 18.3219 11.8984C18.3274 11.8506 18.3302 11.8026 18.3302 11.7545L18.3327 10.7662C18.3327 9.2339 15.5008 7.95028 11.7376 7.64406L11.6766 7.63894C11.6305 7.63505 11.5845 7.63115 11.5379 7.62778L11.5351 7.62772L11.5327 7.62769ZM12.8057 12.3539C12.355 12.4671 11.8512 12.5526 11.3084 12.6059L11.3912 12.7403L11.5859 13.046C11.667 13.039 11.7503 13.0297 11.8289 13.0206C11.9215 13.0112 12.0142 12.9996 12.102 12.9881L12.1344 12.9834L12.1516 12.9814C12.2618 12.9682 12.3738 12.9548 12.4816 12.9371C12.5464 12.9278 12.6066 12.9185 12.669 12.907C12.7478 12.8956 12.8241 12.8816 12.8982 12.8677L12.9351 12.8607C13.1507 12.8195 13.3478 12.7782 13.5335 12.7325L13.2453 12.5792L12.8495 12.3747L12.8057 12.3539ZM13.9072 8.89595L13.0487 9.33576C13.1141 9.35621 13.1765 9.37731 13.239 9.39847L13.2404 9.39894C13.5387 9.49432 13.8068 9.60278 14.0369 9.72459L14.192 9.68989L15.3061 9.43888C15.2355 9.40024 15.1599 9.36349 15.0841 9.32687C14.7348 9.16346 14.341 9.01903 13.9072 8.89595ZM16.231 10.1319L14.7752 10.3076C14.7836 10.3204 14.7908 10.3329 14.7979 10.3455L14.8088 10.3643C14.8989 10.505 14.9537 10.6521 14.9558 10.8031L16.4764 10.8494L16.4775 10.8349C16.4793 10.8103 16.481 10.7875 16.481 10.7662C16.481 10.5555 16.3977 10.3426 16.231 10.1319ZM14.641 11.472C14.48 11.6354 14.2614 11.7872 13.9904 11.9233L14.3014 12.0272L14.7984 12.1873H14.8007L14.8796 12.215L14.8934 12.2173L14.9953 12.252C15.0479 12.2278 15.0901 12.2078 15.1319 12.1881L15.1387 12.1848L15.1618 12.1734H15.1641C15.2707 12.1224 15.3702 12.0691 15.4674 12.0137L15.4696 12.0124C15.5174 11.985 15.5651 11.9577 15.6061 11.928C15.6547 11.898 15.6942 11.8724 15.7311 11.847C15.7467 11.8356 15.7563 11.8295 15.7635 11.8249C15.768 11.8219 15.7716 11.8196 15.7752 11.817C15.7775 11.8145 15.7844 11.8077 15.7914 11.803L15.8111 11.7892C15.8228 11.781 15.8353 11.7724 15.8468 11.7637C15.9058 11.7183 15.9555 11.6775 16.001 11.6367L15.7166 11.5856L15.6224 11.574L15.2174 11.5253L14.7961 11.472H14.641ZM8.13499 12.6014L7.73024 12.9648L7.75596 12.9714L7.80641 12.9789L7.81712 12.9803C7.90142 12.9914 7.98593 13.0025 8.07256 13.0136C8.23926 13.032 8.40811 13.0481 8.58171 13.0621C8.69512 13.0714 8.81081 13.0807 8.92894 13.0876L9.07008 13.0945C9.18109 13.1014 9.29222 13.1061 9.40335 13.1107L9.41072 13.1107C9.42701 13.1107 9.43722 13.111 9.44736 13.1131H9.51221C9.6348 13.1177 9.7528 13.12 9.87321 13.12V12.6686C9.27839 12.6641 8.71598 12.62 8.19528 12.546L8.13499 12.6014ZM3.64723 11.2204L3.65029 11.2291C3.65419 11.2349 3.6579 11.2409 3.6617 11.247C3.66784 11.2569 3.67421 11.2671 3.68197 11.2776C3.69755 11.3035 3.71305 11.3242 3.72764 11.3437L3.74212 11.3633C3.74981 11.3749 3.75907 11.3863 3.76732 11.3965L3.7707 11.4007L4.05339 11.3692L4.74893 11.2868L4.78594 11.2798L4.95264 11.2614L5.16842 11.2361C5.16375 11.2273 5.15977 11.2187 5.15578 11.2101C5.15336 11.2048 5.15093 11.1996 5.14834 11.1943C5.08184 11.0707 5.04294 10.9435 5.04294 10.8124C5.04294 10.7976 5.04525 10.7829 5.04764 10.7677C5.04937 10.7567 5.05113 10.7455 5.05208 10.7339L4.9721 10.7313L3.52454 10.6874C3.51995 10.7152 3.51995 10.7407 3.51995 10.7661L3.5221 10.8008C3.5221 10.8378 3.52682 10.8749 3.53382 10.9096L3.5431 10.9697L3.54374 10.9717C3.54678 10.9809 3.55518 11.0066 3.56152 11.0323C3.56654 11.0488 3.57388 11.0666 3.58102 11.0838L3.58926 11.104C3.60326 11.1387 3.61481 11.1618 3.62637 11.1827L3.64723 11.2058V11.2204ZM4.99889 9.28491C4.56797 9.47602 4.22695 9.68573 3.97936 9.90913L4.48226 9.97469L5.26732 10.0717L5.42233 10.0856C5.60062 9.92602 5.83444 9.77788 6.11673 9.64591L6.09587 9.63892L4.99889 9.28491ZM5.66302 11.877L4.69603 12.0981C4.70071 12.1016 4.70549 12.1047 4.71026 12.1077C4.71338 12.1097 4.71651 12.1116 4.7196 12.1138C4.75661 12.1333 4.79336 12.1526 4.83213 12.171C4.89229 12.2011 4.95254 12.2288 5.0127 12.2543C5.06357 12.2774 5.11214 12.2984 5.16312 12.3191C5.17688 12.3254 5.18996 12.3303 5.20237 12.335C5.21291 12.3389 5.22297 12.3427 5.23255 12.347C5.35755 12.3955 5.48255 12.4418 5.60983 12.4857C5.64925 12.4997 5.68626 12.5113 5.72327 12.5228C5.74286 12.5291 5.76192 12.5353 5.78072 12.5415C5.81745 12.5536 5.85318 12.5653 5.88984 12.576L5.94188 12.5912C5.99618 12.607 6.0502 12.6227 6.10283 12.6386L6.84365 12.2588C6.77994 12.2379 6.71939 12.2163 6.65871 12.1946L6.64785 12.1907C6.34329 12.087 6.07285 11.9694 5.84831 11.8401L5.66302 11.877ZM7.30645 9.24539C7.74079 9.14149 8.22135 9.06304 8.73887 9.01434L8.65329 8.87716L8.46139 8.57899L8.40355 8.48641C7.71064 8.55102 7.05697 8.65731 6.45625 8.80265L6.46465 8.80962L6.48473 8.81968L7.30645 9.24539Z" fill="#8696AD"/>
<path d="M18.2147 13.2892V13.2962L18.2183 13.2927L18.2146 13.4811V13.7474L18.3219 11.8984C18.3066 12.0297 18.2706 12.1595 18.2146 12.2868C18.0681 12.6207 17.7856 12.937 17.3906 13.2273C17.3847 13.2316 17.3784 13.2358 17.3724 13.2402C17.3253 13.2744 17.2775 13.3084 17.2274 13.3419C16.6531 13.727 15.8774 14.0587 14.9592 14.3188L14.9242 14.3288C14.8892 14.3389 14.8543 14.3489 14.8187 14.3586L14.8067 14.3618L14.7999 14.3636C13.4424 14.7317 11.7868 14.9484 10.0005 14.9484C8.35286 14.9484 6.81621 14.7638 5.52174 14.4462L5.50083 14.4412C5.4905 14.4388 5.48016 14.4364 5.46999 14.4338C5.44669 14.428 5.42388 14.422 5.401 14.416L5.37145 14.4083C4.20837 14.1114 3.24834 13.7044 2.59779 13.2203C2.20641 12.9311 1.92682 12.6164 1.78171 12.2844C1.72576 12.1588 1.68964 12.0294 1.67436 11.8981L1.7818 13.7474V13.2892C1.78333 13.2907 1.78538 13.2922 1.78704 13.2939V13.2892C1.92565 13.4308 2.08915 13.5659 2.26692 13.6966C2.30914 13.7273 2.3483 13.7592 2.39244 13.7894C2.43313 13.8172 2.47851 13.8437 2.52086 13.8712L2.53418 13.8797C2.61582 13.9319 2.69743 13.9841 2.78499 14.0338C2.79693 14.0407 2.81018 14.0472 2.82226 14.0539C4.55185 15.0203 7.32776 15.5272 10.0006 15.5272C13.308 15.5272 16.7727 14.7519 18.2147 13.2892Z" fill="#8696AD"/>
<path d="M9.98781 6.72865C10.0056 6.71085 10.036 6.71289 10.0528 6.73163C10.0871 6.77001 10.1232 6.80686 10.1617 6.84218C10.2362 6.91076 10.2544 7.02534 10.1932 7.10609L9.83815 7.57451L9.63913 7.8363C9.58208 7.90868 9.46845 7.88147 9.45695 7.79003C9.44798 7.71866 9.44216 7.64812 9.43953 7.57917C9.4348 7.4348 9.43838 7.29747 9.4486 7.1767C9.45118 7.1462 9.46991 7.11969 9.49691 7.10527C9.50371 7.10164 9.51019 7.09808 9.51536 7.09507C9.51758 7.09377 9.52009 7.09307 9.52267 7.09307C9.52536 7.09307 9.528 7.09229 9.53026 7.09084L9.61694 7.03522C9.63808 7.02415 9.65405 7.01287 9.67484 6.99962C9.67632 6.99868 9.67787 6.99787 9.67948 6.99719C9.68147 6.99635 9.68337 6.99531 9.68515 6.99408C9.80109 6.91381 9.89999 6.82507 9.98781 6.72865Z" fill="#8696AD"/>
<path d="M9.98781 6.72865C10.0056 6.71085 10.036 6.71289 10.0528 6.73163C10.0871 6.77001 10.1232 6.80686 10.1617 6.84218C10.2362 6.91076 10.2544 7.02534 10.1932 7.10609L9.83815 7.57451L9.63913 7.8363C9.58208 7.90868 9.46845 7.88147 9.45695 7.79003C9.44798 7.71866 9.44216 7.64812 9.43953 7.57917C9.4348 7.4348 9.43838 7.29747 9.4486 7.1767C9.45118 7.1462 9.46991 7.11969 9.49691 7.10527C9.50371 7.10164 9.51019 7.09808 9.51536 7.09507C9.51758 7.09377 9.52009 7.09307 9.52267 7.09307C9.52536 7.09307 9.528 7.09229 9.53026 7.09084L9.61694 7.03522C9.63808 7.02415 9.65405 7.01287 9.67484 6.99962C9.67632 6.99868 9.67787 6.99787 9.67948 6.99719C9.68147 6.99635 9.68337 6.99531 9.68515 6.99408C9.80109 6.91381 9.89999 6.82507 9.98781 6.72865Z" fill="#8696AD"/>
<path fill-rule="evenodd" clip-rule="evenodd" d="M6.80805 6.09561H7.43054C7.63172 6.09561 7.82451 5.95555 8.0256 5.94961L9.58154 5.90361C9.68516 5.90361 9.7672 5.98447 9.73995 6.07246C9.70977 6.18131 9.66331 6.28545 9.58695 6.3849C9.52163 6.47273 9.43738 6.55336 9.32603 6.62732C9.32534 6.62778 9.32452 6.62803 9.32369 6.62803C9.32268 6.62803 9.3217 6.62839 9.32093 6.62904C9.30784 6.64013 9.2945 6.64917 9.27863 6.65817C9.24292 6.68131 9.20484 6.70205 9.16376 6.72292L9.13157 6.73888C9.10973 6.7497 9.08569 6.75534 9.06132 6.75534C8.98726 6.75534 8.92603 6.80729 8.91311 6.88022C8.91298 6.88097 8.91284 6.88173 8.91271 6.88249C8.88557 7.06536 8.86084 7.31536 8.87178 7.5932C8.88557 7.89173 8.94289 8.22272 9.08206 8.53756C9.0993 8.57943 9.12494 8.61894 9.14625 8.65989L9.15255 8.6721C9.17654 8.71748 9.19647 8.76403 9.22392 8.8083C9.30039 8.93558 9.3986 9.05827 9.51336 9.17158L9.53524 9.19258C9.5648 9.22057 9.58154 9.25948 9.58154 9.30019V9.80254C9.58154 9.9074 9.51609 10.0011 9.41764 10.0372C9.22115 10.1113 9.00282 10.2155 8.83078 10.3127C8.60154 10.4453 8.53497 10.7135 8.69128 10.903C8.69503 10.9075 8.69799 10.9129 8.7024 10.9168C8.83078 11.0649 9.21846 11.4144 10.0019 11.4144C10.7773 11.4144 11.165 11.0696 11.2986 10.9198C11.3004 10.9177 11.3024 10.9159 11.3038 10.9135C11.3054 10.9108 11.3077 10.9086 11.3097 10.9062C11.4695 10.7144 11.4007 10.4461 11.173 10.3149C11.001 10.2155 10.78 10.1112 10.5833 10.0372C10.4849 10.0011 10.4194 9.90739 10.4194 9.8025V9.30042C10.4194 9.25958 10.4363 9.22056 10.466 9.19258L10.4877 9.17158C10.5559 9.10446 10.616 9.0373 10.6679 8.96559C10.7088 8.91475 10.7442 8.86159 10.777 8.80589C10.8013 8.76963 10.8177 8.72985 10.8384 8.69209C10.8432 8.68343 10.848 8.67441 10.8528 8.66549C10.8754 8.62266 10.9023 8.58171 10.9218 8.53756C10.9376 8.50379 10.951 8.46796 10.9642 8.43415C10.965 8.43208 10.9672 8.43045 10.9681 8.42839C10.9686 8.42696 10.9685 8.42569 10.9691 8.42425C11.0422 8.23038 11.0856 8.03216 11.1073 7.84072C11.1183 7.75745 11.1238 7.67415 11.1265 7.59316C11.1401 7.31533 11.1155 7.06533 11.0882 6.88245C11.0881 6.8817 11.088 6.88094 11.0878 6.88019C11.0752 6.80722 11.0137 6.75531 10.9396 6.75531C10.9153 6.75531 10.8912 6.74967 10.8694 6.73885L10.8372 6.72288C10.7963 6.70202 10.758 6.68128 10.7226 6.65814C10.7061 6.64886 10.6898 6.63958 10.676 6.62799C10.5643 6.55384 10.4823 6.47298 10.4168 6.38486C10.3402 6.28545 10.2913 6.17887 10.2613 6.07015C10.2366 5.98444 10.3186 5.90358 10.4222 5.90358L11.9752 5.94956C12.1764 5.95551 12.3693 6.09557 12.5706 6.09557H13.1929C13.2338 6.09557 13.2665 6.06784 13.2665 6.03314V6.01699V4.65824C13.2665 4.62354 13.2338 4.59567 13.1929 4.59567H12.5706C12.3675 4.59567 12.1735 4.73511 11.9705 4.74005L10.4773 4.77638C10.4278 4.77758 10.3866 4.74019 10.3866 4.69066C10.3849 4.63864 10.3938 4.58712 10.4128 4.53869C10.471 4.39067 10.6048 4.05053 10.6938 3.82501C10.7325 3.727 10.763 3.61102 10.6916 3.53352C10.5883 3.42141 10.3549 3.34131 10.0019 3.34131C9.77069 3.34131 9.45571 3.42835 9.31234 3.54797C9.23376 3.61353 9.2544 3.72573 9.2916 3.82107C9.37969 4.04679 9.51514 4.39034 9.5745 4.53903C9.59298 4.58531 9.60408 4.64083 9.60408 4.69066C9.60408 4.74012 9.56293 4.77757 9.51348 4.77637L8.03081 4.7401C7.82773 4.73513 7.63364 4.59567 7.4305 4.59567H6.80801C6.76724 4.59567 6.73438 4.6235 6.73438 4.65824V6.01699V6.03314C6.73441 6.06787 6.76728 6.09561 6.80805 6.09561ZM10.1932 7.10609C10.2544 7.02534 10.2362 6.91076 10.1617 6.84218C10.1232 6.80686 10.0871 6.77001 10.0528 6.73163C10.036 6.71289 10.0056 6.71085 9.98781 6.72865C9.89999 6.82507 9.80109 6.91381 9.68515 6.99408C9.68337 6.99531 9.68147 6.99635 9.67948 6.99719C9.67787 6.99787 9.67632 6.99868 9.67484 6.99962C9.65405 7.01287 9.63808 7.02415 9.61694 7.03522L9.53026 7.09084C9.528 7.09229 9.52536 7.09307 9.52267 7.09307C9.52009 7.09307 9.51758 7.09377 9.51536 7.09507C9.51019 7.09808 9.50371 7.10164 9.49691 7.10527C9.46991 7.11969 9.45118 7.1462 9.4486 7.1767C9.43838 7.29747 9.4348 7.4348 9.43953 7.57917C9.44216 7.64812 9.44798 7.71866 9.45695 7.79003C9.46845 7.88147 9.58208 7.90868 9.63913 7.8363L9.83815 7.57451L10.1932 7.10609Z" fill="#8696AD"/>
</svg>
