<svg width="350" height="93" viewBox="0 0 350 93" fill="none" xmlns="http://www.w3.org/2000/svg">
<path d="M12.8119 64.0674C12.8119 65.1221 13.6669 65.9771 14.7216 65.9771H21.6234C22.6781 65.9771 23.5331 65.1221 23.5331 64.0674V63.8669C23.5331 63.6057 23.4775 63.3482 23.3821 63.105C22.8773 61.8189 22.6001 60.4209 22.6001 58.9566V57.1656C22.6001 56.1109 21.7451 55.2559 20.6904 55.2559H14.7216C13.6669 55.2559 12.8119 56.1109 12.8119 57.1656V64.0674Z" fill="white"/>
<path d="M12.8119 70.1017C12.8119 70.4532 13.0734 70.7478 13.4188 70.8129C17.8218 71.6433 21.2916 75.1132 22.1221 79.5161C22.1872 79.8615 22.4817 80.1231 22.8332 80.1231V80.1231C23.2197 80.1231 23.5331 79.8097 23.5331 79.4232V71.3116C23.5331 70.2569 22.6781 69.4019 21.6234 69.4019H13.5118C13.1252 69.4019 12.8119 69.7152 12.8119 70.1017V70.1017Z" fill="white"/>
<path d="M20.6904 41.1069H14.7216C13.6669 41.1069 12.8119 41.9619 12.8119 43.0166V49.9184C12.8119 50.9731 13.6669 51.8281 14.7216 51.8281H20.6904C21.7451 51.8281 22.6001 50.9731 22.6001 49.9184V43.0166C22.6001 41.9619 21.7451 41.1069 20.6904 41.1069Z" fill="#E0FE06"/>
<path d="M12.8119 35.7723C12.8119 36.827 13.6669 37.682 14.7216 37.682H20.6904C21.7451 37.682 22.6001 36.827 22.6001 35.7723V33.9812C22.6001 32.5169 22.8773 31.119 23.3821 29.8328C23.4775 29.5897 23.5331 29.3321 23.5331 29.071V28.8705C23.5331 27.8158 22.6781 26.9608 21.6234 26.9608H14.7216C13.6669 26.9608 12.8119 27.8158 12.8119 28.8705V35.7723Z" fill="white"/>
<path d="M28.8709 83.5508C27.8162 83.5508 26.9612 84.4058 26.9612 85.4605V89.762C26.9612 90.3692 27.2444 90.9492 27.7621 91.2665C29.4896 92.3253 31.5203 92.935 33.6971 92.935H35.7727C36.8274 92.935 37.6824 92.08 37.6824 91.0253V85.4605C37.6824 84.4058 36.8274 83.5508 35.7727 83.5508H28.8709Z" fill="white"/>
<path d="M57.1654 83.5508C56.1108 83.5508 55.2557 84.4058 55.2557 85.4605V91.0253C55.2557 92.08 56.1107 92.935 57.1654 92.935H59.241C61.4148 92.935 63.4468 92.3235 65.1746 91.2664C65.693 90.9492 65.9769 90.3687 65.9769 89.7609V85.4605C65.9769 84.4058 65.1219 83.5508 64.0673 83.5508H57.1654Z" fill="white"/>
<path d="M49.9182 83.5508H43.0164C41.9617 83.5508 41.1067 84.4058 41.1067 85.4605V91.0253C41.1067 92.08 41.9617 92.935 43.0164 92.935H49.9182C50.9729 92.935 51.8279 92.08 51.8279 91.0253V85.4605C51.8279 84.4058 50.9729 83.5508 49.9182 83.5508Z" fill="#FE9B06"/>
<path d="M37.6824 72.2446C37.6824 71.1899 36.8274 70.3349 35.7727 70.3349H33.9816C32.5173 70.3349 31.1193 70.0576 29.8332 69.5529C29.5901 69.4575 29.3325 69.4019 29.0713 69.4019H28.8709C27.8162 69.4019 26.9612 70.2569 26.9612 71.3116V78.2134C26.9612 79.2681 27.8162 80.1231 28.8709 80.1231H35.7727C36.8274 80.1231 37.6824 79.2681 37.6824 78.2134V72.2446Z" fill="white"/>
<path d="M49.9182 12.812H43.0164C41.9617 12.812 41.1067 13.667 41.1067 14.7217V20.6905C41.1067 21.7452 41.9617 22.6002 43.0164 22.6002H49.9182C50.9729 22.6002 51.8279 21.7452 51.8279 20.6905V14.7217C51.8279 13.667 50.9729 12.812 49.9182 12.812Z" fill="white"/>
<path d="M49.9182 70.335H43.0164C41.9617 70.335 41.1067 71.19 41.1067 72.2447V78.2134C41.1067 79.2681 41.9617 80.1231 43.0164 80.1231H49.9182C50.9729 80.1231 51.8279 79.2681 51.8279 78.2134V72.2447C51.8279 71.19 50.9729 70.335 49.9182 70.335Z" fill="white"/>
<path d="M35.7727 22.6002C36.8274 22.6002 37.6824 21.7452 37.6824 20.6905V14.7217C37.6824 13.667 36.8274 12.812 35.7727 12.812H28.8709C27.8162 12.812 26.9612 13.667 26.9612 14.7217V21.6235C26.9612 22.6782 27.8162 23.5332 28.8709 23.5332H29.0713C29.3325 23.5332 29.5901 23.4776 29.8332 23.3822C31.1193 22.8774 32.5173 22.6002 33.9816 22.6002H35.7727Z" fill="white"/>
<path d="M57.1654 70.3349C56.1107 70.3349 55.2557 71.1899 55.2557 72.2446V78.2134C55.2557 79.2681 56.1107 80.1231 57.1654 80.1231H64.0673C65.1219 80.1231 65.9769 79.2681 65.9769 78.2134V71.3116C65.9769 70.2569 65.1219 69.4019 64.0673 69.4019H63.8668C63.6056 69.4019 63.348 69.4575 63.1049 69.5529C61.8188 70.0576 60.4208 70.3349 58.9565 70.3349H57.1654Z" fill="white"/>
<path d="M55.2557 22.5973C55.2557 22.5988 55.257 22.6001 55.2586 22.6001H58.7517C61.1787 22.6001 63.4281 21.8346 65.2688 20.5308C65.7309 20.2035 65.9769 19.6585 65.9769 19.0922V14.7188C65.9769 13.6641 65.1219 12.8091 64.0673 12.8091H57.1654C56.1108 12.8091 55.2557 13.6641 55.2557 14.7188V22.5973V22.5973Z" fill="white"/>
<path d="M80.1262 57.1656C80.1262 56.1109 79.2712 55.2559 78.2165 55.2559H72.2477C71.193 55.2559 70.338 56.1109 70.338 57.1656V58.9566C70.338 60.4209 70.0608 61.8189 69.5561 63.105C69.4607 63.3482 69.405 63.6057 69.405 63.8669V64.0674C69.405 65.1221 70.26 65.9771 71.3147 65.9771H78.2165C79.2712 65.9771 80.1262 65.1221 80.1262 64.0674V57.1656Z" fill="white"/>
<path d="M80.1254 28.871C80.1257 27.8161 79.2706 26.9608 78.2158 26.9608H73.8447C73.2773 26.9608 72.7315 27.2078 72.404 27.6712C71.1023 29.513 70.3349 31.7597 70.3349 34.186V35.7723C70.3349 36.827 71.1899 37.682 72.2446 37.682H78.2139C79.2684 37.682 80.1233 36.8273 80.1236 35.7728L80.1254 28.871Z" fill="#FE0606"/>
<path d="M78.2134 41.1069H72.2446C71.1899 41.1069 70.3349 41.9619 70.3349 43.0166V49.9184C70.3349 50.9731 71.1899 51.8281 72.2446 51.8281H78.2134C79.2681 51.8281 80.1231 50.9731 80.1231 49.9184V43.0166C80.1231 41.9619 79.2681 41.1069 78.2134 41.1069Z" fill="white"/>
<path d="M71.3147 69.4048C70.26 69.4048 69.405 70.2598 69.405 71.3145V79.4261C69.405 79.8126 69.7184 80.126 70.1049 80.126V80.126C70.4564 80.126 70.7509 79.8644 70.8161 79.5191C71.6465 75.1161 75.1163 71.6463 79.5193 70.8158C79.8647 70.7507 80.1262 70.4561 80.1262 70.1047V70.1047C80.1262 69.7181 79.8129 69.4048 79.4263 69.4048H71.3147Z" fill="white"/>
<path d="M21.6234 23.5332C22.6781 23.5332 23.5331 22.6782 23.5331 21.6235V13.5119C23.5331 13.1254 23.2197 12.812 22.8332 12.812V12.812C22.4817 12.812 22.1872 13.0736 22.1221 13.4189C21.2916 17.8219 17.8218 21.2917 13.4188 22.1222C13.0734 22.1873 12.8119 22.4819 12.8119 22.8333V22.8333C12.8119 23.2199 13.1252 23.5332 13.5118 23.5332H21.6234Z" fill="white"/>
<path d="M49.9182 0H43.0164C41.9617 0 41.1067 0.855001 41.1067 1.9097V7.47455C41.1067 8.52925 41.9617 9.38425 43.0164 9.38425H49.9182C50.9729 9.38425 51.8279 8.52925 51.8279 7.47455V1.9097C51.8279 0.855 50.9729 0 49.9182 0Z" fill="white"/>
<path d="M1.66862 65.1747C1.98582 65.6931 2.56637 65.9771 3.17416 65.9771H7.47455C8.52925 65.9771 9.38425 65.1221 9.38425 64.0674V57.1656C9.38425 56.1109 8.52925 55.2559 7.47455 55.2559H1.9097C0.855 55.2559 0 56.1109 0 57.1656V59.2411C0 61.4149 0.611573 63.4469 1.66862 65.1747Z" fill="#F906FE"/>
<path d="M0 35.7723C0 36.827 0.855 37.682 1.9097 37.682H7.47455C8.52925 37.682 9.38425 36.827 9.38425 35.7723V28.8705C9.38425 27.8158 8.52925 26.9608 7.47455 26.9608H3.17299C2.56585 26.9608 1.98582 27.2441 1.66856 27.7617C0.609767 29.4893 0 31.52 0 33.6968V35.7723Z" fill="white"/>
<path d="M7.47455 41.1069H1.9097C0.855 41.1069 0 41.9619 0 43.0166V49.9184C0 50.9731 0.855 51.8281 1.9097 51.8281H7.47455C8.52925 51.8281 9.38425 50.9731 9.38425 49.9184V43.0166C9.38425 41.9619 8.52925 41.1069 7.47455 41.1069Z" fill="white"/>
<path d="M35.7727 9.38425C36.8274 9.38425 37.6824 8.52925 37.6824 7.47455V1.9097C37.6824 0.855001 36.8274 0 35.7727 0H33.6971C31.5233 0 29.4913 0.611573 27.7635 1.66862C27.2451 1.98582 26.9612 2.56637 26.9612 3.17416V7.47456C26.9612 8.52925 27.8162 9.38425 28.8709 9.38425H35.7727Z" fill="white"/>
<path d="M91.0251 41.1069H85.4603C84.4056 41.1069 83.5506 41.9619 83.5506 43.0166V49.9184C83.5506 50.9731 84.4056 51.8281 85.4603 51.8281H91.0251C92.0798 51.8281 92.9348 50.9731 92.9348 49.9184V43.0166C92.9348 41.9619 92.0798 41.1069 91.0251 41.1069Z" fill="white"/>
<path d="M85.4603 26.9608C84.4056 26.9608 83.5506 27.8158 83.5506 28.8705V35.7723C83.5506 36.827 84.4056 37.682 85.4603 37.682H91.0251C92.0798 37.682 92.9348 36.827 92.9348 35.7723V34.186C92.9348 31.7591 92.1693 29.5097 90.8655 27.669C90.5382 27.2068 89.9932 26.9608 89.4269 26.9608H85.4603Z" fill="white"/>
<path d="M64.0673 9.38425C65.1219 9.38425 65.9769 8.52925 65.9769 7.47455V3.50978C65.9769 2.94235 65.73 2.39657 65.2666 2.06908C63.4248 0.767373 61.1781 0 58.7517 0H57.1654C56.1107 0 55.2557 0.855 55.2557 1.9097V7.47455C55.2557 8.52925 56.1107 9.38425 57.1654 9.38425H64.0673Z" fill="#E0FE06"/>
<path d="M92.9378 57.1656C92.9378 56.1109 92.0828 55.2559 91.0282 55.2559H85.4633C84.4086 55.2559 83.5536 56.1109 83.5536 57.1656V64.0674C83.5536 65.1221 84.4086 65.9771 85.4633 65.9771H89.7649C90.372 65.9771 90.952 65.6938 91.2693 65.1761C92.3281 63.4486 92.9378 61.4179 92.9378 59.2411V57.1656Z" fill="#E0FE06"/>
<path d="M116.529 26.9379H128.747C130 26.9379 131.169 27.1789 132.253 27.6608C133.362 28.1428 134.325 28.8055 135.145 29.6489C135.988 30.4682 136.639 31.4321 137.097 32.5406C137.579 33.625 137.82 34.7938 137.82 36.0468V56.795C137.82 58.0481 137.579 59.2288 137.097 60.3373C136.639 61.4217 135.988 62.3856 135.145 63.2291C134.325 64.0484 133.362 64.699 132.253 65.181C131.169 65.6388 130 65.8678 128.747 65.8678H116.529C115.276 65.8678 114.095 65.6388 112.987 65.181C111.878 64.699 110.902 64.0484 110.059 63.2291C109.24 62.3856 108.589 61.4217 108.107 60.3373C107.649 59.2288 107.42 58.0481 107.42 56.795V36.0468C107.42 34.7938 107.649 33.625 108.107 32.5406C108.589 31.4321 109.24 30.4682 110.059 29.6489C110.902 28.8055 111.878 28.1428 112.987 27.6608C114.095 27.1789 115.276 26.9379 116.529 26.9379ZM118.337 35.107C118.047 35.107 117.806 35.2155 117.614 35.4323C117.421 35.6251 117.325 35.8661 117.325 36.1553V56.6865C117.325 56.9757 117.421 57.2167 117.614 57.4095C117.806 57.6022 118.047 57.6986 118.337 57.6986H126.94C127.205 57.6986 127.434 57.6022 127.626 57.4095C127.819 57.2167 127.915 56.9757 127.915 56.6865V36.1553C127.915 35.8661 127.819 35.6251 127.626 35.4323C127.434 35.2155 127.205 35.107 126.94 35.107H118.337Z" fill="white"/>
<path d="M152.712 65.8678H142.772V36.0468C142.772 34.7938 143.013 33.625 143.495 32.5406C143.977 31.4321 144.627 30.4682 145.447 29.6489C146.29 28.8055 147.254 28.1428 148.338 27.6608C149.447 27.1789 150.628 26.9379 151.881 26.9379H162.291V35.107H153.688C153.423 35.107 153.194 35.2155 153.001 35.4323C152.808 35.6251 152.712 35.8661 152.712 36.1553V65.8678Z" fill="white"/>
<path d="M176.207 24.2631C174.858 24.2631 173.581 24.01 172.376 23.504C171.195 22.9738 170.147 22.2509 169.231 21.3352C168.339 20.4195 167.628 19.3712 167.098 18.1904C166.592 16.9856 166.339 15.6963 166.339 14.3228H176.207V24.2631ZM166.339 26.9379H176.207V65.8678H166.339V26.9379Z" fill="white"/>
<path d="M211.342 69.374C211.342 70.6271 211.101 71.7958 210.619 72.8802C210.137 73.9887 209.474 74.9526 208.631 75.7719C207.811 76.6153 206.848 77.278 205.739 77.76C204.655 78.2419 203.486 78.4829 202.233 78.4829H190.847V70.3138H200.425C200.715 70.3138 200.956 70.2053 201.148 69.9885C201.341 69.7957 201.438 69.5668 201.438 69.3017V65.8678H190.16C188.907 65.8678 187.714 65.6388 186.581 65.181C185.473 64.7231 184.497 64.0845 183.653 63.2652C182.81 62.4218 182.147 61.4579 181.665 60.3735C181.183 59.265 180.942 58.0721 180.942 56.795V36.0468C180.942 34.7938 181.183 33.625 181.665 32.5406C182.147 31.4321 182.798 30.4682 183.617 29.6489C184.461 28.8055 185.425 28.1428 186.509 27.6608C187.618 27.1789 188.798 26.9379 190.051 26.9379C197.136 26.9379 204.233 26.9379 211.342 26.9379C211.342 41.1074 211.342 55.2527 211.342 69.374ZM191.859 35.107C191.594 35.107 191.353 35.2155 191.136 35.4323C190.943 35.6251 190.847 35.8661 190.847 36.1553V56.6865C190.847 56.9757 190.943 57.2167 191.136 57.4095C191.353 57.6022 191.594 57.6986 191.859 57.6986C195.064 57.6986 198.257 57.6986 201.438 57.6986V35.107C198.257 35.107 195.064 35.107 191.859 35.107Z" fill="white"/>
<path d="M226.162 24.2631C224.812 24.2631 223.535 24.01 222.33 23.504C221.15 22.9738 220.101 22.2509 219.186 21.3352C218.294 20.4195 217.583 19.3712 217.053 18.1904C216.547 16.9856 216.294 15.6963 216.294 14.3228H226.162V24.2631ZM216.294 26.9379H226.162V65.8678H216.294V26.9379Z" fill="white"/>
<path d="M252.404 26.9379C253.657 26.9379 254.826 27.1789 255.91 27.6608C257.019 28.1428 257.983 28.8055 258.802 29.6489C259.646 30.4682 260.296 31.4321 260.754 32.5406C261.236 33.625 261.477 34.7938 261.477 36.0468V65.8678H251.609V36.1553C251.609 35.8661 251.501 35.6251 251.284 35.4323C251.091 35.2155 250.862 35.107 250.597 35.107C247.392 35.107 244.187 35.107 240.982 35.107V65.8678H231.114V26.9379C238.199 26.9379 245.295 26.9379 252.404 26.9379Z" fill="white"/>
<path d="M274.96 65.8678C273.707 65.8678 272.526 65.6388 271.417 65.181C270.333 64.699 269.369 64.0484 268.526 63.2291C267.706 62.3856 267.056 61.4217 266.574 60.3373C266.116 59.2288 265.887 58.0481 265.887 56.795V51.4091C265.887 50.3247 266.08 49.3488 266.465 48.4813C266.851 47.6137 267.369 46.8306 268.02 46.1317C268.694 45.4329 269.453 44.7943 270.297 44.216C271.164 43.6135 272.08 43.0472 273.044 42.5171L286.021 35.3601C285.852 35.1914 285.635 35.107 285.37 35.107C278.888 35.107 272.393 35.107 265.887 35.107V26.9379H287.213C288.466 26.9379 289.635 27.1789 290.72 27.6608C291.828 28.1428 292.792 28.8055 293.611 29.6489C294.455 30.4682 295.105 31.4321 295.563 32.5406C296.045 33.625 296.286 34.7938 296.286 36.0468V65.8678C289.177 65.8678 282.069 65.8678 274.96 65.8678ZM286.382 44.469C286.286 44.5895 286.165 44.6859 286.021 44.7582L276.622 49.9633C276.068 50.3006 275.791 50.7705 275.791 51.373V56.6865C275.791 56.9757 275.887 57.2167 276.08 57.4095C276.273 57.6022 276.514 57.6986 276.803 57.6986C279.984 57.6986 283.177 57.6986 286.382 57.6986V44.469Z" fill="white"/>
<path d="M311.142 56.6865C311.142 56.9757 311.239 57.2167 311.432 57.4095C311.648 57.6022 311.889 57.6986 312.155 57.6986H316.42V65.8678H310.347C309.094 65.8678 307.913 65.6388 306.805 65.181C305.72 64.699 304.757 64.0484 303.913 63.2291C303.094 62.3856 302.443 61.4217 301.961 60.3373C301.479 59.2288 301.238 58.0481 301.238 56.795V14.3228H311.142V56.6865Z" fill="white"/>
<path d="M328.71 26.9379H340.891C342.144 26.9379 343.313 27.1789 344.397 27.6608C345.506 28.1428 346.47 28.8055 347.289 29.6489C348.132 30.4682 348.795 31.4321 349.277 32.5406C349.759 33.625 350 34.7938 350 36.0468V41.3965C350 42.4809 349.807 43.4569 349.422 44.3244C349.036 45.1919 348.506 45.9751 347.831 46.6739C347.181 47.3728 346.421 48.0234 345.554 48.6258C344.711 49.2042 343.807 49.7584 342.843 50.2886L329.866 57.4456C330.059 57.6143 330.276 57.6986 330.517 57.6986C337.023 57.6986 343.518 57.6986 350 57.6986V65.8678H328.71C327.457 65.8678 326.276 65.6388 325.167 65.181C324.059 64.699 323.083 64.0484 322.239 63.2291C321.42 62.3856 320.769 61.4217 320.288 60.3373C319.83 59.2288 319.601 58.0481 319.601 56.795V36.0468C319.601 34.7938 319.83 33.625 320.288 32.5406C320.769 31.4321 321.42 30.4682 322.239 29.6489C323.083 28.8055 324.059 28.1428 325.167 27.6608C326.276 27.1789 327.457 26.9379 328.71 26.9379ZM339.228 42.8785C339.807 42.5412 340.096 42.0472 340.096 41.3965V36.1553C340.096 35.8661 339.987 35.6251 339.771 35.4323C339.578 35.2155 339.349 35.107 339.084 35.107H330.517C330.228 35.107 329.987 35.2155 329.794 35.4323C329.601 35.6251 329.505 35.8661 329.505 36.1553V48.3367C329.625 48.2162 329.746 48.1198 329.866 48.0475L339.228 42.8785Z" fill="white"/>
</svg>
