<svg width="33" height="33" viewBox="0 0 33 33" fill="none" xmlns="http://www.w3.org/2000/svg">
<path  d="M32.521 16.4537L29.9291 19.0781C30.0209 20.4605 29.6938 21.8383 28.9915 23.0274C28.2893 24.2164 27.2452 25.16 25.9991 25.7321C24.7529 26.3041 23.364 26.4773 22.018 26.2285C20.6721 25.9797 19.4331 25.3208 18.4669 24.3398L21.2729 29.9047H11.7181L14.5303 24.3398C13.2693 25.614 11.5603 26.3293 9.77887 26.3283C7.99742 26.3274 6.2892 25.6103 5.02953 24.3348C3.76985 23.0592 3.06175 21.3294 3.06081 19.5255C3.05986 17.7216 3.76615 15.9911 5.02449 14.7142L16.4987 3.09511L20.0954 6.73745L9.67244 17.2975C9.23992 17.3188 8.82312 17.4683 8.4737 17.7273C8.12429 17.9864 7.85761 18.3435 7.70681 18.7546C7.55601 19.1656 7.5277 19.6125 7.62536 20.0397C7.72302 20.4669 7.94237 20.8557 8.25621 21.1578C8.57004 21.46 8.96456 21.6621 9.39084 21.7393C9.81711 21.8165 10.2564 21.7653 10.6542 21.592C11.052 21.4188 11.3908 21.1311 11.6286 20.7646C11.8665 20.3982 11.9928 19.9691 11.9921 19.5306C11.9921 19.4651 11.9784 19.4034 11.9729 19.3396L22.2595 8.92878L26.7868 13.5132L23.0459 17.3015L23.0415 17.3059C22.5759 17.3269 22.1276 17.4906 21.7558 17.7753C21.3841 18.06 21.1065 18.4523 20.9598 18.9003C20.8131 19.3482 20.8042 19.8307 20.9343 20.2839C21.0643 20.7371 21.3272 21.1397 21.6882 21.4382C22.0491 21.7368 22.4911 21.9174 22.9556 21.956C23.4201 21.9946 23.8852 21.8895 24.2895 21.6545C24.6937 21.4196 25.0179 21.0658 25.2192 20.6402C25.4205 20.2145 25.4894 19.737 25.4169 19.2708L25.4238 19.2638L26.3222 18.3599L28.847 15.8033L31.0355 13.5875V13.5813L31.115 13.5069L30.1429 12.5349L28.9448 11.3278L24.4175 6.74346L24.4196 6.74144L22.2555 4.55L22.2534 4.55207L18.6568 0.910031C18.3735 0.621634 18.0368 0.392764 17.666 0.236594C17.2951 0.0804242 16.8974 0 16.4957 0C16.0941 0 15.6964 0.0804242 15.3255 0.236594C14.9546 0.392764 14.6179 0.621634 14.3346 0.910031L2.86071 12.5287C1.55844 13.8494 0.651011 15.5157 0.242896 17.3357C-0.165218 19.1557 -0.0574 21.0555 0.553909 22.8161C1.16522 24.5768 2.25514 26.1269 3.69824 27.2878C5.14134 28.4488 6.87889 29.1734 8.71084 29.3783C8.62813 29.8641 8.66096 30.3629 8.8066 30.8333C8.95223 31.3037 9.20652 31.7322 9.54831 32.0833C9.84699 32.3813 10.2014 32.6159 10.5909 32.7732C10.9804 32.9306 11.397 33.0074 11.8163 32.9994H21.2729C21.7959 33 22.3103 32.8642 22.7664 32.605C23.2225 32.3459 23.6051 31.9722 23.8772 31.52C24.2679 30.8809 24.4116 30.1181 24.2806 29.3783C25.7039 29.2213 27.0759 28.7503 28.3 27.9985C29.5241 27.2467 30.5705 26.2322 31.3657 25.0266C32.0589 23.9965 32.543 22.8371 32.7898 21.6159C33.1427 19.9005 33.05 18.1219 32.521 16.4537V16.4537Z" fill="#FFFFFF"/>
</svg>
